<?xml version="1.0" standalone="no"?>
<!DOCTYPE svg PUBLIC "-//W3C//DTD SVG 1.1//EN" "http://www.w3.org/Graphics/SVG/1.1/DTD/svg11.dtd" >
<svg>
<metadata>
Created by FontForge 20110222 at Thu Feb 13 11:28:32 2014
 By Orthosie Webhosting
(c) 1988, 1994, 2001, 2002 Adobe Systems Incorporated. All rights reserved.
</metadata>
<defs>
<font id="ITCKabelStdMedium" horiz-adv-x="500" >
  <font-face 
    font-family="ITCKabelStdMedium"
    font-weight="500"
    font-stretch="normal"
    units-per-em="1000"
    panose-1="2 13 6 2 2 2 4 2 3 4"
    ascent="724"
    descent="-276"
    x-height="506"
    cap-height="702"
    bbox="-167 -250 1000 931"
    underline-thickness="50"
    underline-position="-50"
    unicode-range="U+0020-FB02"
  />
<missing-glyph 
d="M0 0v700h500v-700h-500zM250 395l170 255h-340zM280 350l170 -255v510zM80 50h340l-170 255zM50 605v-510l170 255z" />
    <glyph glyph-name="f_i" unicode="fi" 
d="M75 -16v437h-66l28 85h38q-3 201 197 201l32 -87q-14 2 -36 2q-54 0 -75.5 -21.5t-21.5 -94.5h128v-85h-128v-421zM357 506l96 16v-522l-96 -16v522zM472 642l-63 -73l-67 73l67 73z" />
    <glyph glyph-name="f_l" unicode="fl" 
d="M75 -16v437h-66l28 85h38q-3 201 195 201l30 -85h-38q-49 0 -70 -22t-21 -94h128v-85h-128v-421zM357 691l96 16v-707l-96 -16v707z" />
    <glyph glyph-name=".notdef" 
d="M0 0v700h500v-700h-500zM250 395l170 255h-340zM280 350l170 -255v510zM80 50h340l-170 255zM50 605v-510l170 255z" />
    <glyph glyph-name=".null" horiz-adv-x="0" 
 />
    <glyph glyph-name="nonmarkingreturn" horiz-adv-x="333" 
 />
    <glyph glyph-name="space" unicode=" " horiz-adv-x="278" 
 />
    <glyph glyph-name="exclam" unicode="!" horiz-adv-x="278" 
d="M146 -9l-65 86l65 86l65 -86zM190 232l-78 -16l-9 470l102 16z" />
    <glyph glyph-name="quotedbl" unicode="&#x22;" horiz-adv-x="333" 
d="M197 415v271h82v-271h-82zM53 415v271h82v-271h-82z" />
    <glyph glyph-name="numbersign" unicode="#" horiz-adv-x="556" 
d="M459 686l-29 -210h89v-62h-98l-20 -142h90v-62h-98l-30 -210h-70l29 210h-117l-29 -210h-71l30 210h-97v62h106l19 142h-97v62h106l28 210h72l-29 -210h116l29 210h71zM350 414h-116l-20 -142h117z" />
    <glyph glyph-name="dollar" unicode="$" horiz-adv-x="556" 
d="M68 161l71 55q53 -67 110 -67v185q-85 19 -124.5 60t-39.5 123q0 60 50.5 107.5t113.5 49.5v71l69 14v-85q87 -6 152 -77l-64 -59q-40 42 -88 51v-171q163 -29 163 -175q0 -74 -53.5 -126.5t-109.5 -52.5v-95l-69 -17v112q-53 0 -100.5 26.5t-80.5 70.5zM249 432v157
q-30 0 -52 -23t-22 -52q0 -77 74 -82zM318 322v-173q33 0 53 25.5t20 63.5q0 69 -73 84z" />
    <glyph glyph-name="percent" unicode="%" horiz-adv-x="889" 
d="M590 702h59l-390 -718h-56l322 586l-2 2q-10 -15 -32 -23.5t-41 -8.5q-30 0 -50 18l-2 -2q5 -18 5 -37q0 -72 -45.5 -119.5t-117.5 -47.5t-117.5 47.5t-45.5 119.5t45.5 119.5t117.5 47.5q60 0 113 -43q20 -15 29 -21t28 -13.5t38 -7.5q82 0 142 101zM149 516
q0 -40 26.5 -66t64.5 -26t64.5 26t26.5 66t-27 69t-64 29t-64 -29t-27 -69zM605 334q72 0 117.5 -47.5t45.5 -119.5t-45.5 -119.5t-117.5 -47.5t-117.5 47.5t-45.5 119.5t45.5 119.5t117.5 47.5zM605 262q-37 0 -64 -27.5t-27 -67.5t27 -67.5t64 -27.5q38 0 64.5 27.5
t26.5 67.5t-26.5 67.5t-64.5 27.5z" />
    <glyph glyph-name="ampersand" unicode="&#x26;" horiz-adv-x="667" 
d="M336 380l105 -122l112 129l62 -58l-123 -136l125 -144l-63 -57l-115 135q-3 -3 -17.5 -20.5t-19 -23t-18.5 -21t-21 -21t-20.5 -17.5t-24 -17t-24 -11.5t-27.5 -9t-28 -2.5q-83 0 -135.5 51t-52.5 135q0 24 8.5 48t18 40.5t31.5 40t32.5 33t39 33.5t34.5 29
q-28 35 -40 51.5t-24.5 47t-12.5 60.5q0 64 47 106.5t112 42.5q63 0 106.5 -43t43.5 -106q0 -90 -111 -173zM383 194l-112 136q-9 -9 -37 -32.5t-42.5 -38t-28.5 -39.5t-14 -50q0 -42 22.5 -69t62.5 -27q19 0 36.5 6.5t36 24t26.5 25.5t28.5 35t21.5 29zM286 444
q1 1 13.5 11t15.5 13t13.5 12.5t14 15.5t9.5 15t8 18t2 18q0 31 -18 53t-48 22q-32 0 -50 -22t-18 -53q0 -28 17.5 -56.5t40.5 -46.5z" />
    <glyph glyph-name="quotesingle" unicode="'" horiz-adv-x="222" 
d="M70 415v271h82v-271h-82z" />
    <glyph glyph-name="parenleft" unicode="(" horiz-adv-x="389" 
d="M273 702l44 -56q-81 -70 -126 -164.5t-45 -202.5q0 -223 165 -373l-45 -55q-91 71 -142.5 182t-51.5 229q0 268 201 440z" />
    <glyph glyph-name="parenright" unicode=")" horiz-adv-x="389" 
d="M116 -149l-44 56q81 70 126 164.5t45 202.5q0 223 -165 373l45 55q91 -71 142.5 -182t51.5 -229q0 -268 -201 -440z" />
    <glyph glyph-name="asterisk" unicode="*" horiz-adv-x="444" 
d="M168 509l-121 66l19 57l127 -74v131l59 13v-143l108 70l45 -48l-125 -71l111 -58l-15 -63l-124 70v-129l-59 -18v146l-115 -69l-39 46z" />
    <glyph glyph-name="plus" unicode="+" horiz-adv-x="600" 
d="M259 294v212h82v-212h212v-82h-212v-212h-82v212h-212v82h212z" />
    <glyph glyph-name="comma" unicode="," horiz-adv-x="278" 
d="M108 -190l-73 -5l90 318l102 11z" />
    <glyph glyph-name="hyphen" unicode="-" horiz-adv-x="333" 
d="M285 209h-238v88h238v-88z" />
    <glyph glyph-name="period" unicode="." horiz-adv-x="278" 
d="M139 -9l-65 86l65 86l65 -86z" />
    <glyph glyph-name="slash" unicode="/" horiz-adv-x="278" 
d="M294 702l-251 -718h-60l250 718h61z" />
    <glyph glyph-name="zero" unicode="0" horiz-adv-x="556" 
d="M278 702q83 0 141 -52t83 -130.5t25 -176.5t-25 -176.5t-83 -130.5t-141 -52t-141 52t-83 130.5t-25 176.5t25 176.5t83 130.5t141 52zM278 612q-46 0 -77.5 -25.5t-46.5 -69.5t-21 -85.5t-6 -88.5t6 -88.5t21 -85.5t46.5 -69.5t77.5 -25.5t77.5 25.5t46.5 69.5t21 85.5
t6 88.5t-6 88.5t-21 85.5t-46.5 69.5t-77.5 25.5z" />
    <glyph glyph-name="one" unicode="1" horiz-adv-x="556" 
d="M120 444l-35 62l271 196h2v-702l-98 -8v539z" />
    <glyph glyph-name="two" unicode="2" horiz-adv-x="556" 
d="M510 90l-18 -90h-449l238 276q28 32 40 47t35.5 47.5t34 61.5t10.5 56q0 60 -37.5 92t-95.5 32q-59 0 -95.5 -39.5t-36.5 -84.5q0 -67 33 -105.5t85 -43.5l-62 -78q-61 19 -103.5 76.5t-42.5 150.5q0 94 66.5 154t161.5 60q99 0 162 -58.5t63 -155.5q0 -35 -13.5 -74
t-29.5 -68.5t-50 -72t-52.5 -63t-60.5 -64.5t-53 -56h270z" />
    <glyph glyph-name="three" unicode="3" horiz-adv-x="556" 
d="M30 107l73 56q61 -89 153 -89q62 0 101 32.5t39 92.5q0 50 -38.5 85.5t-109.5 35.5h-68v85h40q86 0 120.5 24t34.5 78q0 51 -35 78t-88 27q-88 0 -131 -74l-76 60q82 104 207 104q86 0 153.5 -51t67.5 -136q0 -101 -94 -147q53 -22 84 -69t31 -105q0 -95 -66 -152.5
t-161 -57.5q-80 0 -136.5 28.5t-100.5 94.5z" />
    <glyph glyph-name="four" unicode="4" horiz-adv-x="556" 
d="M160 243h153v221h-3zM313 167h-301l391 535h2v-459h114l-16 -76h-98v-167l-92 -8v175z" />
    <glyph glyph-name="five" unicode="5" horiz-adv-x="556" 
d="M26 90l80 54q57 -70 128 -70q72 0 121 40.5t49 110.5q0 64 -48.5 107t-117.5 43q-75 0 -139 -57v368h362l-24 -90h-240v-141q33 10 67 10q95 0 166.5 -72t71.5 -168q0 -108 -78 -174.5t-186 -66.5q-124 0 -212 106z" />
    <glyph glyph-name="six" unicode="6" horiz-adv-x="556" 
d="M292 702l89 -48q-124 -130 -192 -233l2 -2q50 35 107 35q92 0 156.5 -68.5t64.5 -162.5q0 -102 -69 -170.5t-170 -68.5t-171.5 64.5t-70.5 166.5q0 94 34 167q60 131 220 320zM278 74q64 0 103.5 39.5t39.5 106.5q0 63 -38 106t-98 43q-63 0 -106 -42.5t-43 -106.5
q0 -60 41 -103t101 -43z" />
    <glyph glyph-name="seven" unicode="7" horiz-adv-x="556" 
d="M376 596h-322l24 90h419l-220 -686l-109 -12z" />
    <glyph glyph-name="eight" unicode="8" horiz-adv-x="556" 
d="M516 180q0 -54 -22 -93.5t-59.5 -61t-81 -31.5t-93.5 -10q-83 0 -151.5 53t-68.5 132q0 69 32.5 113t97.5 74q-47 25 -78 65t-31 89q0 90 62.5 141t155.5 51q84 0 147 -45.5t63 -129.5q0 -99 -108 -161q135 -55 135 -186zM418 181q0 27 -8 46.5t-27.5 34.5t-32 21.5
t-44.5 19t-41 16.5q-127 -42 -127 -128q0 -59 39.5 -88t100.5 -29q60 0 100 25t40 82zM273 612q-47 0 -84.5 -23t-37.5 -68q0 -95 132 -130q116 43 116 119q0 51 -36.5 76.5t-89.5 25.5z" />
    <glyph glyph-name="nine" unicode="9" horiz-adv-x="556" 
d="M281 702q99 0 170.5 -73t71.5 -172q0 -71 -22 -128t-67 -127q-15 -23 -31 -45.5t-37 -48.5t-32.5 -40.5t-37 -45t-32.5 -38.5l-87 48q110 112 192 233l-2 2q-19 -14 -48.5 -24.5t-52.5 -10.5q-94 0 -163.5 65t-69.5 157q0 105 71.5 176.5t176.5 71.5zM273 612
q-59 0 -100.5 -44.5t-41.5 -104.5q0 -59 43.5 -102.5t105.5 -43.5q59 0 102 47t43 107q0 58 -45 99.5t-107 41.5z" />
    <glyph glyph-name="colon" unicode=":" horiz-adv-x="278" 
d="M139 -9l-65 86l65 86l65 -86zM139 262l-65 86l65 86l65 -86z" />
    <glyph glyph-name="semicolon" unicode=";" horiz-adv-x="278" 
d="M71 -195h-73l93 313l105 16zM139 262l-65 86l65 86l65 -86z" />
    <glyph glyph-name="less" unicode="&#x3c;" horiz-adv-x="600" 
d="M553 74v-82l-506 225v72l506 225v-82l-402 -179z" />
    <glyph glyph-name="equal" unicode="=" horiz-adv-x="600" 
d="M553 398v-82h-506v82h506zM553 190v-82h-506v82h506z" />
    <glyph glyph-name="greater" unicode="&#x3e;" horiz-adv-x="600" 
d="M47 74l402 179l-402 179v82l506 -225v-72l-506 -225v82z" />
    <glyph glyph-name="question" unicode="?" 
d="M146 513l-85 35q8 68 62.5 111t124.5 43q80 0 129 -56t49 -138q0 -42 -14.5 -75.5t-35 -55t-41.5 -39.5t-35.5 -37t-14.5 -38v-41l-85 -12v61q0 26 14 50.5t34 44.5t40 40.5t34 48.5t14 60q0 47 -24 74.5t-69 27.5q-43 0 -68.5 -29.5t-28.5 -74.5zM244 -9l-65 86l65 86
l65 -86z" />
    <glyph glyph-name="at" unicode="@" horiz-adv-x="800" 
d="M360 205q56 0 96 58.5t40 118.5q0 35 -23 61t-55 26q-57 0 -97 -56.5t-40 -117.5q0 -39 22.5 -64.5t56.5 -25.5zM525 472l18 56h69l-71 -260q-23 -70 10 -70q47 0 88 60.5t41 136.5q0 111 -76 177t-189 66q-125 0 -206 -85.5t-81 -212.5q0 -126 84.5 -209t211.5 -83
q64 0 123 26t100 73h69q-47 -76 -125.5 -119.5t-170.5 -43.5q-153 0 -259.5 104t-106.5 256q0 149 106 253.5t255 104.5q136 0 233.5 -83.5t97.5 -211.5q0 -64 -25 -119t-62 -88t-75.5 -51.5t-70.5 -18.5q-24 0 -40.5 15t-17.5 42h-2q-53 -57 -111 -57q-62 0 -103 46
t-41 111q0 99 61.5 177.5t154.5 78.5q76 0 111 -71z" />
    <glyph glyph-name="A" unicode="A" horiz-adv-x="667" 
d="M76 -16l-92 20l348 698h2l349 -698l-98 -20l-117 236h-276zM233 310h195l-98 197z" />
    <glyph glyph-name="B" unicode="B" 
d="M53 0v686h207q78 0 132.5 -52.5t54.5 -128.5q0 -88 -90 -147q53 -15 83.5 -63t30.5 -105q0 -96 -61 -143t-157 -47h-200zM151 310v-224h90q132 0 132 104q0 120 -132 120h-90zM151 600v-208h90q47 0 77.5 31t30.5 82q0 95 -108 95h-90z" />
    <glyph glyph-name="C" unicode="C" horiz-adv-x="556" 
d="M471 685l21 -106q-48 33 -115 33q-103 0 -176.5 -80t-73.5 -185q0 -108 70.5 -190.5t175.5 -82.5q67 0 134 42l-18 -107q-73 -25 -118 -25q-143 0 -242.5 107t-99.5 252q0 133 100 246t227 113q50 0 115 -17z" />
    <glyph glyph-name="D" unicode="D" horiz-adv-x="611" 
d="M65 0v686h171q151 0 248.5 -102.5t97.5 -240.5t-97.5 -240.5t-248.5 -102.5h-171zM163 596v-506h73q94 0 171 71t77 182t-77 182t-171 71h-73z" />
    <glyph glyph-name="E" unicode="E" 
d="M448 0h-381v686h366l21 -90h-289v-194h231v-90h-231v-222h311z" />
    <glyph glyph-name="F" unicode="F" horiz-adv-x="444" 
d="M165 0l-98 -12v698h354l17 -90h-273v-194h210v-90h-210v-312z" />
    <glyph glyph-name="G" unicode="G" horiz-adv-x="722" 
d="M644 388v-304q-34 -42 -108.5 -71t-161.5 -29q-137 0 -241 106t-104 244q0 152 102.5 260t253.5 108q72 0 138.5 -24.5t111.5 -69.5l-58 -67q-96 71 -188 71q-106 0 -184 -80t-78 -198q0 -59 31 -118.5t88.5 -100.5t124.5 -41q115 0 175 61v163h-205l34 90h269z" />
    <glyph glyph-name="H" unicode="H" horiz-adv-x="667" 
d="M165 0l-98 -12v698l98 16v-300h338v284l98 16v-702l-98 -12v324h-338v-312z" />
    <glyph glyph-name="I" unicode="I" horiz-adv-x="222" 
d="M160 0l-98 -8v694l98 16v-702z" />
    <glyph glyph-name="J" unicode="J" horiz-adv-x="389" 
d="M-6 28l49 86q40 -32 91 -32q91 0 91 122v482l98 16v-498q0 -109 -58.5 -164.5t-145.5 -55.5q-30 0 -67.5 12.5t-57.5 31.5z" />
    <glyph glyph-name="K" unicode="K" horiz-adv-x="556" 
d="M165 0l-98 -16v702l98 16v-347h2l281 359l92 -42l-260 -320l253 -331l-99 -37l-267 366h-2v-350z" />
    <glyph glyph-name="L" unicode="L" horiz-adv-x="444" 
d="M416 0h-349v686l98 16v-612h291z" />
    <glyph glyph-name="M" unicode="M" horiz-adv-x="778" 
d="M106 -12l-94 12l139 702h2l237 -523l234 523h2l140 -702l-95 -12l-83 434h-2l-195 -430h-2l-200 430h-2z" />
    <glyph glyph-name="N" unicode="N" horiz-adv-x="667" 
d="M162 0l-98 -12v714h2l440 -480v448l98 16v-702h-2l-440 480v-464z" />
    <glyph glyph-name="O" unicode="O" horiz-adv-x="778" 
d="M29 343q0 151 105.5 255t254.5 104t254.5 -104t105.5 -255t-105.5 -255t-254.5 -104t-254.5 104t-105.5 255zM127 343q0 -108 77.5 -188.5t184.5 -80.5t184.5 80.5t77.5 188.5t-77.5 188.5t-184.5 80.5t-184.5 -80.5t-77.5 -188.5z" />
    <glyph glyph-name="P" unicode="P" 
d="M162 0l-98 -12v698h185q104 0 168 -56.5t64 -145.5q0 -222 -266 -222h-53v-262zM162 596v-244h76q73 0 109 30.5t36 101.5q0 59 -40.5 85.5t-104.5 26.5h-76z" />
    <glyph glyph-name="Q" unicode="Q" horiz-adv-x="778" 
d="M770 -17l-77 -50l-101 113q-89 -62 -203 -62q-149 0 -254.5 104t-105.5 255t105.5 255t254.5 104t254.5 -104t105.5 -255q0 -137 -89 -237zM443 213l76 49l75 -83q57 74 57 164q0 108 -77.5 188.5t-184.5 80.5t-184.5 -80.5t-77.5 -188.5t77.5 -188.5t184.5 -80.5
q75 0 140 43z" />
    <glyph glyph-name="R" unicode="R" 
d="M155 0l-98 -12v698h169q41 0 78.5 -11t71.5 -34t54.5 -65t20.5 -98q0 -145 -152 -179l207 -287l-110 -28l-239 349h-2v-333zM155 596v-241h70q52 0 90 34.5t38 88.5q0 59 -34.5 88.5t-93.5 29.5h-70z" />
    <glyph glyph-name="S" unicode="S" 
d="M35 95l72 60q22 -35 57 -58t74 -23q57 0 91 29.5t34 90.5q0 43 -32.5 69.5t-78.5 41t-92 33t-78.5 60.5t-32.5 109q0 90 58.5 142.5t152.5 52.5q56 0 107.5 -27t85.5 -73l-66 -66q-23 24 -38.5 38t-41 26t-52.5 12q-48 0 -78 -28.5t-30 -76.5q0 -33 23.5 -56t58 -35.5
t75.5 -30t75.5 -37t58 -59.5t23.5 -96q0 -91 -61.5 -150t-151.5 -59q-65 0 -112.5 27.5t-100.5 83.5z" />
    <glyph glyph-name="T" unicode="T" horiz-adv-x="444" 
d="M173 596h-178l31 90h405v-90h-160v-596l-98 -12v608z" />
    <glyph glyph-name="U" unicode="U" horiz-adv-x="611" 
d="M450 686l98 16v-437q0 -156 -55 -218.5t-186 -62.5q-138 0 -191 64.5t-53 216.5v421l98 16v-489q0 -66 36.5 -102.5t101.5 -36.5q68 0 109.5 33.5t41.5 105.5v473z" />
    <glyph glyph-name="V" unicode="V" 
d="M422 702l98 -16l-273 -702h-2l-265 702l97 16l168 -476h2z" />
    <glyph glyph-name="W" unicode="W" horiz-adv-x="833" 
d="M751 702l101 -16l-293 -702h-2l-139 335l-136 -335h-2l-299 702l101 16l204 -490l80 203l-115 271l92 16l74 -178l71 178l91 -16l-111 -271l86 -214z" />
    <glyph glyph-name="X" unicode="X" horiz-adv-x="556" 
d="M449 702l93 -30l-208 -302l233 -351l-93 -35l-194 307l-205 -307l-87 43l235 343l-199 302l93 30l163 -255z" />
    <glyph glyph-name="Y" unicode="Y" 
d="M423 702l94 -29l-308 -689l-96 21l120 259l-249 410l96 28l199 -334z" />
    <glyph glyph-name="Z" unicode="Z" horiz-adv-x="556" 
d="M543 90l-24 -90h-505l364 596h-349l20 90h476l-360 -596h378z" />
    <glyph glyph-name="bracketleft" unicode="[" horiz-adv-x="333" 
d="M202 -133h-157v819h157v-56h-90v-707h90v-56z" />
    <glyph glyph-name="backslash" unicode="\" horiz-adv-x="278" 
d="M235 -16l-251 718h61l250 -718h-60z" />
    <glyph glyph-name="bracketright" unicode="]" horiz-adv-x="333" 
d="M131 686h157v-819h-157v56h90v707h-90v56z" />
    <glyph glyph-name="asciicircum" unicode="^" horiz-adv-x="600" 
d="M141 272h-84l205 414h76l206 -414h-84l-161 328z" />
    <glyph glyph-name="underscore" unicode="_" 
d="M0 -75h500v-50h-500v50z" />
    <glyph glyph-name="grave" unicode="`" horiz-adv-x="222" 
d="M-38 725h134l90 -144h-82z" />
    <glyph glyph-name="a" unicode="a" 
d="M449 0l-86 -16v70h-2q-36 -70 -150 -70q-84 0 -136 56t-52 141q0 81 60 130t142 49t128 -49v39q0 52 -28 67t-92 15q-90 0 -148 -29l26 99q100 20 138 20q103 0 151.5 -44.5t48.5 -145.5v-332zM236 275q-48 0 -82.5 -24t-34.5 -70q0 -53 29 -80t81 -27q124 0 124 107
q0 45 -34 69.5t-83 24.5z" />
    <glyph glyph-name="b" unicode="b" horiz-adv-x="611" 
d="M53 220v471l96 16v-264q67 79 175 79q106 0 181.5 -77.5t75.5 -188.5q0 -120 -79 -196t-198 -76q-100 0 -176 68t-75 168zM139 253q0 -74 51 -126.5t125 -52.5q72 0 121 52.5t49 126.5t-49 126.5t-121 52.5q-73 0 -124.5 -52.5t-51.5 -126.5z" />
    <glyph glyph-name="c" unicode="c" 
d="M475 451l-58 -66q-35 26 -61.5 36.5t-66.5 10.5q-71 0 -117 -54t-46 -126q0 -69 50 -123.5t115 -54.5q63 0 125 60l62 -63q-84 -87 -190 -87q-102 0 -180 77.5t-78 187.5q0 114 73 193.5t185 79.5q105 0 187 -71z" />
    <glyph glyph-name="d" unicode="d" horiz-adv-x="611" 
d="M473 -12v81q-74 -85 -184 -85q-107 0 -182 81t-77 189q-1 115 74.5 191.5t184.5 76.5q98 0 178 -73v242l96 16v-707zM479 252q0 80 -53 130t-133 50q-71 0 -119 -53.5t-48 -126.5q0 -70 51 -124t120 -54q79 0 130.5 49t51.5 129z" />
    <glyph glyph-name="e" unicode="e" horiz-adv-x="556" 
d="M514 383l-356 -227q51 -82 139 -82q76 0 188 88l19 -101q-55 -38 -100.5 -57.5t-100.5 -19.5q-121 0 -195 80t-74 203q0 103 75.5 179t177.5 76q78 0 131 -34t96 -105zM130 239l252 160q-29 33 -88 33q-80 0 -126.5 -56.5t-37.5 -136.5z" />
    <glyph glyph-name="f" unicode="f" horiz-adv-x="278" 
d="M60 -16v437h-66l28 85h38q-1 109 55 155t164 46l30 -91q-26 6 -49 6q-55 0 -79.5 -27t-24.5 -89h128v-85h-128v-421z" />
    <glyph glyph-name="g" unicode="g" 
d="M25 -64l71 56q29 -46 63 -68.5t84 -22.5q56 0 95.5 31t39.5 82q0 63 -39.5 95.5t-95.5 32.5q-62 0 -123 -37l18 71q-110 37 -110 167q0 82 57.5 129t129.5 50q118 6 145 11q34 6 113 34l-22 -94l-60 -15q64 -40 64 -122q0 -52 -28 -91t-77 -56v-2q59 -21 91.5 -65
t32.5 -105q0 -95 -68.5 -148t-162.5 -53q-133 0 -218 120zM243 223q49 0 82.5 31.5t33.5 81.5q0 49 -32.5 77t-83.5 28q-50 0 -84.5 -27.5t-34.5 -77.5q0 -52 31.5 -82.5t87.5 -30.5z" />
    <glyph glyph-name="h" unicode="h" horiz-adv-x="556" 
d="M150 0l-96 -16v707l96 16v-249h6q18 30 58.5 47t87.5 17q85 0 142 -42.5t57 -127.5v-352l-96 -16v354q0 52 -31.5 75.5t-80.5 23.5q-62 0 -102.5 -39t-40.5 -116v-282z" />
    <glyph glyph-name="i" unicode="i" horiz-adv-x="222" 
d="M159 0l-96 -16v522l96 16v-522zM48 639l62 76l64 -76l-62 -75z" />
    <glyph glyph-name="j" unicode="j" horiz-adv-x="222" 
d="M-48 -181l-34 87h31q114 0 114 78v522l96 16v-548q0 -76 -49.5 -116t-118.5 -42q-19 0 -39 3zM114 564l-66 78l61 73l65 -73z" />
    <glyph glyph-name="k" unicode="k" 
d="M157 0l-96 -16v707l96 16v-432l233 253l83 -47l-201 -211l228 -233l-84 -53l-259 273v-257z" />
    <glyph glyph-name="l" unicode="l" horiz-adv-x="222" 
d="M159 0l-96 -12v703l96 16v-707z" />
    <glyph glyph-name="m" unicode="m" horiz-adv-x="778" 
d="M149 0l-96 -16v522l92 16v-69h2q15 30 49.5 49.5t78.5 19.5q100 0 132 -74q15 31 57.5 52.5t92.5 21.5q73 0 120.5 -40.5t47.5 -119.5v-362l-96 -16v360q0 93 -82 93q-40 0 -75 -25t-35 -78v-334l-96 -16v360q0 93 -82 93q-40 0 -75 -25t-35 -78v-334z" />
    <glyph glyph-name="n" unicode="n" horiz-adv-x="556" 
d="M150 0l-96 -16v522l96 16v-75h2q21 37 61.5 56t88.5 19q85 0 142 -43.5t57 -132.5v-346l-96 -16v354q0 52 -31.5 75.5t-80.5 23.5q-62 0 -102.5 -39t-40.5 -116v-282z" />
    <glyph glyph-name="o" unicode="o" horiz-adv-x="611" 
d="M305 522q114 0 195 -78t81 -191t-81 -191t-195 -78q-113 0 -194 78t-81 191t81 191t194 78zM485 253q0 74 -52.5 126.5t-127.5 52.5t-127 -52.5t-52 -126.5t52 -126.5t127 -52.5t127.5 52.5t52.5 126.5z" />
    <glyph glyph-name="p" unicode="p" horiz-adv-x="611" 
d="M138 522v-85q74 85 184 85q108 0 184.5 -81.5t74.5 -188.5q1 -115 -74.5 -191.5t-184.5 -76.5q-54 0 -102 20.5t-76 52.5v-229l-96 -12v690zM485 252q0 79 -51.5 129.5t-122.5 50.5q-79 0 -129 -53t-50 -127q0 -70 51 -124t120 -54q79 0 130.5 49t51.5 129z" />
    <glyph glyph-name="q" unicode="q" horiz-adv-x="611" 
d="M475 506l91 16v-694l-96 -12v241q-80 -73 -178 -73q-110 0 -186.5 76.5t-75.5 191.5q-2 107 76 188.5t186 81.5q110 0 183 -85v69zM479 252q0 80 -53 130t-133 50q-71 0 -119 -53.5t-48 -126.5q0 -70 51 -124t120 -54q79 0 130.5 49t51.5 129z" />
    <glyph glyph-name="r" unicode="r" horiz-adv-x="333" 
d="M150 0l-96 -16v522l90 16v-109h2q50 111 156 111h48l-40 -96q-68 4 -114 -45.5t-46 -143.5v-239z" />
    <glyph glyph-name="s" unicode="s" horiz-adv-x="389" 
d="M16 69l66 56q48 -56 106 -56q33 0 59 16.5t26 47.5q0 30 -18.5 49t-46 26.5t-60 17.5t-60 21.5t-46 41t-18.5 73.5q0 70 47 115t117 45q52 0 88.5 -16t75.5 -55l-57 -63q-25 26 -45.5 37.5t-51.5 11.5q-78 0 -78 -62q0 -31 25.5 -47.5t62 -25.5t73.5 -21.5t62.5 -46
t25.5 -89.5q0 -71 -51.5 -116t-123.5 -45q-113 0 -178 85z" />
    <glyph glyph-name="t" unicode="t" horiz-adv-x="333" 
d="M316 506v-85h-135v-268q0 -48 19 -66t71 -18q1 0 64 6l-17 -87q-38 -4 -77 -4q-67 0 -111.5 43.5t-44.5 111.5v282h-79l34 85h45v124l96 23v-147h135z" />
    <glyph glyph-name="u" unicode="u" horiz-adv-x="556" 
d="M405 506l96 16v-522l-94 -16v75h-2q-45 -75 -152 -75q-85 0 -142 42.5t-57 127.5v352l96 16v-354q0 -52 31.5 -75.5t80.5 -23.5q62 0 102.5 39t40.5 116v282z" />
    <glyph glyph-name="v" unicode="v" horiz-adv-x="444" 
d="M-14 506l90 16l146 -344l145 344l91 -16l-235 -522h-2z" />
    <glyph glyph-name="w" unicode="w" horiz-adv-x="778" 
d="M387 331l-178 -347h-2l-217 522l93 16l133 -328l170 328h2l170 -328l136 328l93 -16l-223 -522h-2z" />
    <glyph glyph-name="x" unicode="x" horiz-adv-x="444" 
d="M367 -12l-147 213l-143 -213l-83 39l169 244l-155 216l80 35l131 -185l122 185l81 -31l-152 -219l181 -241z" />
    <glyph glyph-name="y" unicode="y" horiz-adv-x="444" 
d="M181 113l-197 393l84 16l159 -311l148 311l84 -16l-321 -670l-86 24z" />
    <glyph glyph-name="z" unicode="z" 
d="M471 85l-22 -85h-439l301 421h-267l19 85h410l-306 -421h304z" />
    <glyph glyph-name="braceleft" unicode="{" horiz-adv-x="333" 
d="M-8 252v56q33 0 58 30t25 76v170q0 55 32 86.5t76 31.5h57v-56h-50q-48 0 -48 -79v-168q0 -57 -29.5 -86t-57.5 -34v-3q28 -5 57.5 -35t29.5 -88v-167q0 -40 9.5 -59.5t38.5 -19.5h50v-56h-57q-41 0 -74.5 32t-33.5 86v169q0 52 -25 83t-58 31z" />
    <glyph glyph-name="bar" unicode="|" horiz-adv-x="222" 
d="M70 750h82v-1000h-82v1000z" />
    <glyph glyph-name="braceright" unicode="}" horiz-adv-x="333" 
d="M341 308v-56q-33 0 -58 -31t-25 -83v-169q0 -54 -33.5 -86t-74.5 -32h-57v56h50q29 0 38.5 19.5t9.5 59.5v167q0 58 29.5 88t57.5 35v3q-28 5 -57.5 34t-29.5 86v168q0 79 -48 79h-50v56h57q44 0 76 -31.5t32 -86.5v-170q0 -46 25 -76t58 -30z" />
    <glyph glyph-name="asciitilde" unicode="~" horiz-adv-x="600" 
d="M495 329l36 -62q-20 -27 -33 -42t-38 -29.5t-54 -14.5q-42 0 -102 33q-62 35 -115 35q-51 0 -84 -72l-36 62q45 86 125 86q39 0 111 -32q7 -3 21.5 -9.5t23 -10t20 -8t20.5 -6.5t17 -2q19 0 36.5 12t27 24.5t24.5 35.5z" />
    <glyph glyph-name="uni00A0" unicode="&#xa0;" horiz-adv-x="278" 
 />
    <glyph glyph-name="exclamdown" unicode="&#xa1;" horiz-adv-x="278" 
d="M132 527l65 -86l-65 -86l-65 86zM88 286l78 16l9 -470l-102 -16z" />
    <glyph glyph-name="cent" unicode="&#xa2;" horiz-adv-x="556" 
d="M244 563v130l66 14v-143q55 0 99 -41l-47 -57q-44 27 -77 27q-50 0 -85 -31.5t-35 -78.5q0 -54 31.5 -87t87.5 -33q35 0 79 31l48 -56q-32 -37 -101 -48v-160l-66 -10v171q-72 14 -114 64t-42 129q0 64 46 117t110 62z" />
    <glyph glyph-name="sterling" unicode="&#xa3;" horiz-adv-x="556" 
d="M32 0v90h81v231h-76l17 85h59v97q0 90 52.5 144.5t126.5 54.5t123 -41.5t62 -115.5l-89 -24q-20 91 -94 91q-39 0 -65 -27t-26 -76v-103h128v-85h-128v-231h101q76 0 102 44.5t25 122.5l86 -25q1 -109 -55 -170.5t-171 -61.5h-259z" />
    <glyph glyph-name="currency" unicode="&#xa4;" horiz-adv-x="556" 
d="M24 145l55 58q-50 61 -50 146q0 96 52 148l-57 58l49 49l56 -56q59 50 151 50q86 0 143 -49l57 56l51 -51l-55 -55q49 -55 49 -148q0 -89 -49 -150l54 -56l-47 -47l-56 58q-57 -54 -148 -54q-93 0 -152 53l-55 -58zM280 522q-71 0 -120 -50.5t-49 -122.5q0 -71 49 -121
t119 -50q69 0 116.5 51t47.5 122q0 69 -47.5 120t-115.5 51z" />
    <glyph glyph-name="yen" unicode="&#xa5;" horiz-adv-x="556" 
d="M52 463h88l-126 211l86 28l199 -334l144 334l84 -29l-87 -210h94v-85h-136l-32 -65h140v-85h-149v-228l-98 -8v236h-179v85h150l-36 65h-142v85z" />
    <glyph glyph-name="brokenbar" unicode="&#xa6;" horiz-adv-x="222" 
d="M70 675h82v-350h-82v350zM70 175h82v-350h-82v350z" />
    <glyph glyph-name="section" unicode="&#xa7;" 
d="M76 -93l73 55q21 -33 43 -51.5t54 -18.5q25 0 42.5 17.5t17.5 41.5q0 22 -8.5 40.5t-16 26.5t-29.5 30q-14 14 -50.5 49t-59.5 59t-50.5 56t-41.5 60t-14 51q0 55 32 89t85 40q-29 31 -41 58t-12 67q0 57 43.5 91t100.5 34q58 0 97 -20.5t73 -67.5l-71 -56q-18 32 -37 48
t-51 16q-27 0 -42 -14t-15 -38q0 -28 17.5 -53t56.5 -59t49 -45q4 -4 30 -29.5t39.5 -41.5t33.5 -42t29.5 -52t9.5 -52q0 -49 -33 -79.5t-83 -37.5q57 -60 57 -129q0 -68 -46.5 -103.5t-115.5 -35.5q-48 0 -92 26.5t-74 69.5zM134 341q0 -36 74 -114q38 -41 63.5 -60.5
t47.5 -19.5t34 12t12 33q0 40 -70 110q-5 5 -17.5 18.5t-18 19t-16.5 15.5t-19 14.5t-19.5 9t-22.5 6.5q-16 2 -32 -12.5t-16 -31.5z" />
    <glyph glyph-name="dieresis" unicode="&#xa8;" horiz-adv-x="222" 
d="M204 575l-63 73l63 73l61 -73zM19 575l-62 73l62 73l62 -73z" />
    <glyph glyph-name="copyright" unicode="&#xa9;" horiz-adv-x="800" 
d="M401 -16q-151 0 -258.5 102t-107.5 258q0 155 107.5 256.5t258.5 101.5q149 0 256 -102t107 -256q0 -156 -107 -258t-256 -102zM401 638q-121 0 -203.5 -84t-82.5 -210q0 -127 82.5 -211.5t203.5 -84.5q119 0 201 84.5t82 211.5q0 125 -82 209.5t-201 84.5zM520 279h69
q-13 -70 -61.5 -111t-114.5 -41q-94 0 -152.5 62t-58.5 156q0 95 57 156t152 61q70 0 118.5 -39t58.5 -110h-68q-8 38 -37.5 61.5t-71.5 23.5q-61 0 -95 -42.5t-34 -109.5q0 -64 36 -109.5t95 -45.5q43 0 72.5 24.5t34.5 63.5z" />
    <glyph glyph-name="ordfeminine" unicode="&#xaa;" horiz-adv-x="300" 
d="M293 389l-56 -10v42h-2q-25 -42 -99 -42q-55 0 -89.5 33.5t-34.5 85.5q0 48 39.5 76t93.5 28q57 0 81 -26v23q0 31 -17.5 41t-50.5 10q-61 0 -102 -19l15 59q69 12 90 12q67 0 99.5 -27t32.5 -87v-199zM152 550q-28 0 -50.5 -14t-22.5 -38q0 -32 19 -49.5t50 -17.5
q78 0 78 67q0 24 -21.5 38t-52.5 14z" />
    <glyph glyph-name="guillemotleft" unicode="&#xab;" horiz-adv-x="444" 
d="M232 398l-100 -145l100 -145h-100l-100 145l100 145h100zM412 398l-100 -145l100 -145h-100l-100 145l100 145h100z" />
    <glyph glyph-name="logicalnot" unicode="&#xac;" horiz-adv-x="600" 
d="M471 109v207h-424v82h506v-289h-82z" />
    <glyph glyph-name="uni00AD" unicode="&#xad;" horiz-adv-x="333" 
d="M285 209h-238v88h238v-88z" />
    <glyph glyph-name="registered" unicode="&#xae;" horiz-adv-x="800" 
d="M401 -16q-151 0 -258.5 102t-107.5 258q0 155 107.5 256.5t258.5 101.5q149 0 256 -102t107 -256q0 -156 -107 -258t-256 -102zM401 638q-121 0 -203.5 -84t-82.5 -210q0 -127 82.5 -211.5t203.5 -84.5q119 0 201 84.5t82 211.5q0 125 -82 209.5t-201 84.5zM328 315v-177
h-68v410h155q76 0 113 -28t37 -90q0 -100 -108 -112l115 -180h-73l-106 177h-65zM328 371h75q22 0 36.5 2t29 8t21.5 19.5t7 34.5q0 57 -88 57h-81v-121z" />
    <glyph glyph-name="macron" unicode="&#xaf;" horiz-adv-x="222" 
d="M274 615h-325v64h325v-64z" />
    <glyph glyph-name="degree" unicode="&#xb0;" horiz-adv-x="400" 
d="M290 559q0 35 -28 62.5t-62 27.5t-62 -27.5t-28 -62.5t28 -62.5t62 -27.5t62 27.5t28 62.5zM200 416q-60 0 -101.5 41.5t-41.5 101.5t41.5 101.5t101.5 41.5t101.5 -41.5t41.5 -101.5t-41.5 -101.5t-101.5 -41.5z" />
    <glyph glyph-name="plusminus" unicode="&#xb1;" horiz-adv-x="600" 
d="M259 353v153h82v-153h212v-82h-212v-154h-82v154h-212v82h212zM47 0v82h506v-82h-506z" />
    <glyph glyph-name="twosuperior" unicode="&#xb2;" horiz-adv-x="333" 
d="M317 342l-11 -61h-290l155 165q74 79 74 128q0 32 -23.5 49.5t-61.5 17.5q-39 0 -60 -24t-21 -58q0 -31 22.5 -55t46.5 -27l-37 -40q-41 12 -70 47t-29 90q0 56 45 92t107 36q63 0 105.5 -35.5t42.5 -92.5q0 -31 -14.5 -63t-45.5 -66.5t-50 -52.5t-56 -50h171z" />
    <glyph glyph-name="threesuperior" unicode="&#xb3;" horiz-adv-x="333" 
d="M15 345l48 41q39 -54 99 -54q39 0 65 18.5t26 49.5q0 29 -25 50t-71 21h-44v56h26q55 0 77.5 14t22.5 44q0 26 -23 41t-56 15q-57 0 -86 -44l-49 43q53 62 135 62q56 0 101 -31t45 -81q0 -59 -64 -88q35 -14 56.5 -42t21.5 -63q0 -57 -44.5 -91.5t-106.5 -34.5
q-100 0 -154 74z" />
    <glyph glyph-name="acute" unicode="&#xb4;" horiz-adv-x="222" 
d="M34 581l90 144h136l-144 -144h-82z" />
    <glyph glyph-name="mu" unicode="&#xb5;" horiz-adv-x="556" 
d="M405 506l96 16v-522l-94 -16v75h-2q-49 -75 -165 -75q-53 0 -90 17v-173l-96 -12v690l96 16v-354q0 -52 31.5 -75.5t80.5 -23.5q62 0 102.5 39t40.5 116v282z" />
    <glyph glyph-name="paragraph" unicode="&#xb6;" horiz-adv-x="600" 
d="M243 -191v513q-96 0 -155 50.5t-59 128.5q0 95 61.5 140t171.5 45h260v-877h-82v814h-115v-814h-82z" />
    <glyph glyph-name="periodcentered" unicode="&#xb7;" horiz-adv-x="278" 
d="M79 253q0 24 17.5 42t42.5 18q24 0 42 -17.5t18 -42.5t-17.5 -42.5t-42.5 -17.5t-42.5 17.5t-17.5 42.5z" />
    <glyph glyph-name="cedilla" unicode="&#xb8;" horiz-adv-x="222" 
d="M1 -200l19 40q38 -16 64 -16q61 0 61 40q0 28 -32.5 34t-52.5 -5l-22 19l66 88h49l-44 -58l2 -2q12 4 24 4q36 0 63 -20t27 -56q0 -49 -38 -71.5t-90 -22.5q-44 0 -96 26z" />
    <glyph glyph-name="onesuperior" unicode="&#xb9;" horiz-adv-x="333" 
d="M69 547l-23 38l177 117v-421l-67 -5v324z" />
    <glyph glyph-name="ordmasculine" unicode="&#xba;" horiz-adv-x="367" 
d="M7 541q0 67 53 114t124 47t124 -47t53 -114t-53 -114.5t-124 -47.5t-124 47.5t-53 114.5zM74 541q0 -40 33 -70t77 -30q43 0 76.5 30.5t33.5 69.5t-32.5 69t-77.5 30t-77.5 -30t-32.5 -69z" />
    <glyph glyph-name="guillemotright" unicode="&#xbb;" horiz-adv-x="444" 
d="M212 108l100 145l-100 145h100l100 -145l-100 -145h-100zM32 108l100 145l-100 145h100l100 -145l-100 -145h-100z" />
    <glyph glyph-name="onequarter" unicode="&#xbc;" horiz-adv-x="834" 
d="M570 146h89v122h-3zM659 90h-200l256 321v-264h74l-10 -57h-64v-100l-56 -5v105zM253 -16h-57l444 718h58zM88 547l-23 38l177 117v-421l-67 -5v324z" />
    <glyph glyph-name="onehalf" unicode="&#xbd;" horiz-adv-x="834" 
d="M207 -16h-57l444 718h58zM88 547l-23 38l177 117v-421l-67 -5v324zM799 54l-11 -61h-290l155 165q74 79 74 128q0 32 -23.5 49.5t-61.5 17.5q-39 0 -60 -24t-21 -58q0 -31 22.5 -55t46.5 -27l-37 -40q-41 12 -70 47t-29 90q0 56 45 92t107 36q63 0 105.5 -35.5
t42.5 -92.5q0 -31 -14.5 -63t-45.5 -66.5t-50 -52.5t-56 -50h171z" />
    <glyph glyph-name="threequarters" unicode="&#xbe;" horiz-adv-x="834" 
d="M34 345l48 41q39 -54 99 -54q39 0 65 18.5t26 49.5q0 29 -25 50t-71 21h-44v56h26q55 0 77.5 14t22.5 44q0 26 -23 41t-56 15q-57 0 -86 -44l-49 43q53 62 135 62q56 0 101 -31t45 -81q0 -59 -64 -88q35 -14 56.5 -42t21.5 -63q0 -57 -44.5 -91.5t-106.5 -34.5
q-100 0 -154 74zM258 -16h-57l444 718h58zM570 147h89v122h-3zM659 90h-200l256 321v-264h74l-10 -57h-64v-100l-56 -5v105z" />
    <glyph glyph-name="questiondown" unicode="&#xbf;" 
d="M354 5l85 -35q-8 -68 -62.5 -111t-124.5 -43q-80 0 -129 56t-49 138q0 42 14.5 75.5t35 55t41.5 39.5t35.5 37t14.5 38v41l85 12v-61q0 -26 -14 -50.5t-34 -44.5t-40 -40.5t-34 -48.5t-14 -60q0 -47 24 -74.5t69 -27.5q43 0 68.5 29.5t28.5 74.5zM256 527l65 -86l-65 -86
l-65 86z" />
    <glyph glyph-name="Agrave" unicode="&#xc0;" horiz-adv-x="667" 
d="M76 -16l-92 20l348 698h2l349 -698l-98 -20l-117 236h-276zM233 310h195l-98 197zM185 870h134l90 -144h-82z" />
    <glyph glyph-name="Aacute" unicode="&#xc1;" horiz-adv-x="667" 
d="M76 -16l-92 20l348 698h2l349 -698l-98 -20l-117 236h-276zM233 310h195l-98 197zM257 726l90 144h136l-144 -144h-82z" />
    <glyph glyph-name="Acircumflex" unicode="&#xc2;" horiz-adv-x="667" 
d="M76 -16l-92 20l348 698h2l349 -698l-98 -20l-117 236h-276zM233 310h195l-98 197zM334 815l-70 -89h-92l107 144h111l107 -144h-92z" />
    <glyph glyph-name="Atilde" unicode="&#xc3;" horiz-adv-x="667" 
d="M76 -16l-92 20l348 698h2l349 -698l-98 -20l-117 236h-276zM233 310h195l-98 197zM453 856h57q-7 -51 -34.5 -83.5t-76.5 -32.5q-25 0 -73 19q-50 18 -71 18q-17 0 -27.5 -13t-13.5 -31h-57q3 43 32.5 80t71.5 37q33 0 79 -19q49 -19 67 -19q35 0 46 44z" />
    <glyph glyph-name="Adieresis" unicode="&#xc4;" horiz-adv-x="667" 
d="M76 -16l-92 20l348 698h2l349 -698l-98 -20l-117 236h-276zM233 310h195l-98 197zM427 720l-63 73l63 73l61 -73zM242 720l-62 73l62 73l62 -73z" />
    <glyph glyph-name="Aring" unicode="&#xc5;" horiz-adv-x="667" 
d="M76 -16l-92 20l348 698h2l349 -698l-98 -20l-117 236h-276zM233 310h195l-98 197zM334 882q-22 0 -38 -16t-16 -38t15.5 -38t38.5 -16q22 0 38 16.5t16 37.5q0 22 -16 38t-38 16zM334 725q-44 0 -73.5 29.5t-29.5 73.5q0 43 30 73t73 30q42 0 72.5 -30t30.5 -73t-30 -73
t-73 -30z" />
    <glyph glyph-name="AE" unicode="&#xc6;" horiz-adv-x="944" 
d="M51 -16l-93 31l470 671h431l21 -90h-309v-194h252v-90h-252v-222h339l-28 -90h-409v304h-202zM332 394h141v209h-2z" />
    <glyph glyph-name="Ccedilla" unicode="&#xc7;" horiz-adv-x="556" 
d="M471 685l21 -106q-48 33 -115 33q-103 0 -176.5 -80t-73.5 -185q0 -108 70.5 -190.5t175.5 -82.5q67 0 134 42l-18 -107q-71 -25 -116 -25l-32 -42l2 -2q12 4 24 4q36 0 63 -20t27 -56q0 -49 -38 -71.5t-90 -22.5q-44 0 -96 26l19 40q38 -16 64 -16q61 0 61 40
q0 28 -32.5 34t-52.5 -5l-22 19l57 75q-128 17 -213 120t-85 236t100 246t227 113q50 0 115 -17z" />
    <glyph glyph-name="Egrave" unicode="&#xc8;" 
d="M448 0h-381v686h366l21 -90h-289v-194h231v-90h-231v-222h311zM101 870h134l90 -144h-82z" />
    <glyph glyph-name="Eacute" unicode="&#xc9;" 
d="M448 0h-381v686h366l21 -90h-289v-194h231v-90h-231v-222h311zM173 726l90 144h136l-144 -144h-82z" />
    <glyph glyph-name="Ecircumflex" unicode="&#xca;" 
d="M448 0h-381v686h366l21 -90h-289v-194h231v-90h-231v-222h311zM250 815l-70 -89h-92l107 144h111l107 -144h-92z" />
    <glyph glyph-name="Edieresis" unicode="&#xcb;" 
d="M448 0h-381v686h366l21 -90h-289v-194h231v-90h-231v-222h311zM343 720l-63 73l63 73l61 -73zM158 720l-62 73l62 73l62 -73z" />
    <glyph glyph-name="Igrave" unicode="&#xcc;" horiz-adv-x="222" 
d="M160 0l-98 -8v694l98 16v-702zM-43 870h134l90 -144h-82z" />
    <glyph glyph-name="Iacute" unicode="&#xcd;" horiz-adv-x="222" 
d="M160 0l-98 -8v694l98 16v-702zM29 726l90 144h136l-144 -144h-82z" />
    <glyph glyph-name="Icircumflex" unicode="&#xce;" horiz-adv-x="222" 
d="M160 0l-98 -8v694l98 16v-702zM106 815l-70 -89h-92l107 144h111l107 -144h-92z" />
    <glyph glyph-name="Idieresis" unicode="&#xcf;" horiz-adv-x="222" 
d="M160 0l-98 -8v694l98 16v-702zM199 720l-63 73l63 73l61 -73zM14 720l-62 73l62 73l62 -73z" />
    <glyph glyph-name="Eth" unicode="&#xd0;" horiz-adv-x="611" 
d="M0 312v90h65v284h171q151 0 248.5 -102.5t97.5 -240.5t-97.5 -240.5t-248.5 -102.5h-171v312h-65zM330 402v-90h-167v-222h73q94 0 171 71t77 182t-77 182t-171 71h-73v-194h167z" />
    <glyph glyph-name="Ntilde" unicode="&#xd1;" horiz-adv-x="667" 
d="M162 0l-98 -12v714h2l440 -480v448l98 16v-702h-2l-440 480v-464zM446 856h57q-7 -51 -34.5 -83.5t-76.5 -32.5q-26 0 -73 19q-50 18 -71 18q-17 0 -27.5 -13t-13.5 -31h-57q3 43 32.5 80t71.5 37q33 0 79 -19q49 -19 67 -19q35 0 46 44z" />
    <glyph glyph-name="Ograve" unicode="&#xd2;" horiz-adv-x="778" 
d="M29 343q0 151 105.5 255t254.5 104t254.5 -104t105.5 -255t-105.5 -255t-254.5 -104t-254.5 104t-105.5 255zM127 343q0 -108 77.5 -188.5t184.5 -80.5t184.5 80.5t77.5 188.5t-77.5 188.5t-184.5 80.5t-184.5 -80.5t-77.5 -188.5zM240 870h134l90 -144h-82z" />
    <glyph glyph-name="Oacute" unicode="&#xd3;" horiz-adv-x="778" 
d="M29 343q0 151 105.5 255t254.5 104t254.5 -104t105.5 -255t-105.5 -255t-254.5 -104t-254.5 104t-105.5 255zM127 343q0 -108 77.5 -188.5t184.5 -80.5t184.5 80.5t77.5 188.5t-77.5 188.5t-184.5 80.5t-184.5 -80.5t-77.5 -188.5zM312 726l90 144h136l-144 -144h-82z
" />
    <glyph glyph-name="Ocircumflex" unicode="&#xd4;" horiz-adv-x="778" 
d="M29 343q0 151 105.5 255t254.5 104t254.5 -104t105.5 -255t-105.5 -255t-254.5 -104t-254.5 104t-105.5 255zM127 343q0 -108 77.5 -188.5t184.5 -80.5t184.5 80.5t77.5 188.5t-77.5 188.5t-184.5 80.5t-184.5 -80.5t-77.5 -188.5zM389 815l-70 -89h-92l107 144h111
l107 -144h-92z" />
    <glyph glyph-name="Otilde" unicode="&#xd5;" horiz-adv-x="778" 
d="M29 343q0 151 105.5 255t254.5 104t254.5 -104t105.5 -255t-105.5 -255t-254.5 -104t-254.5 104t-105.5 255zM127 343q0 -108 77.5 -188.5t184.5 -80.5t184.5 80.5t77.5 188.5t-77.5 188.5t-184.5 80.5t-184.5 -80.5t-77.5 -188.5zM508 856h57q-7 -51 -34.5 -83.5
t-76.5 -32.5q-25 0 -73 19q-50 18 -71 18q-18 0 -28 -13t-13 -31h-57q3 43 32.5 80t71.5 37q33 0 79 -19q49 -19 67 -19q35 0 46 44z" />
    <glyph glyph-name="Odieresis" unicode="&#xd6;" horiz-adv-x="778" 
d="M29 343q0 151 105.5 255t254.5 104t254.5 -104t105.5 -255t-105.5 -255t-254.5 -104t-254.5 104t-105.5 255zM127 343q0 -108 77.5 -188.5t184.5 -80.5t184.5 80.5t77.5 188.5t-77.5 188.5t-184.5 80.5t-184.5 -80.5t-77.5 -188.5zM482 720l-63 73l63 73l61 -73zM297 720
l-62 73l62 73l62 -73z" />
    <glyph glyph-name="multiply" unicode="&#xd7;" horiz-adv-x="600" 
d="M242 253l-195 193l60 60l193 -195l193 195l60 -60l-195 -193l195 -193l-60 -60l-193 195l-193 -195l-60 60z" />
    <glyph glyph-name="Oslash" unicode="&#xd8;" horiz-adv-x="778" 
d="M199 161l333 405q-63 46 -143 46q-107 0 -184.5 -80.5t-77.5 -188.5q0 -102 72 -182zM579 525l-333 -405q65 -46 143 -46q107 0 184.5 80.5t77.5 188.5q0 105 -72 182zM108 -50l-54 35l83 101q-108 105 -108 257q0 151 105.5 255t254.5 104q113 0 204 -62l72 87l53 -33
l-77 -94q108 -105 108 -257q0 -151 -105.5 -255t-254.5 -104q-111 0 -203 62z" />
    <glyph glyph-name="Ugrave" unicode="&#xd9;" horiz-adv-x="611" 
d="M450 686l98 16v-437q0 -156 -55 -218.5t-186 -62.5q-138 0 -191 64.5t-53 216.5v421l98 16v-489q0 -66 36.5 -102.5t101.5 -36.5q68 0 109.5 33.5t41.5 105.5v473zM157 870h134l90 -144h-82z" />
    <glyph glyph-name="Uacute" unicode="&#xda;" horiz-adv-x="611" 
d="M450 686l98 16v-437q0 -156 -55 -218.5t-186 -62.5q-138 0 -191 64.5t-53 216.5v421l98 16v-489q0 -66 36.5 -102.5t101.5 -36.5q68 0 109.5 33.5t41.5 105.5v473zM229 726l90 144h136l-144 -144h-82z" />
    <glyph glyph-name="Ucircumflex" unicode="&#xdb;" horiz-adv-x="611" 
d="M450 686l98 16v-437q0 -156 -55 -218.5t-186 -62.5q-138 0 -191 64.5t-53 216.5v421l98 16v-489q0 -66 36.5 -102.5t101.5 -36.5q68 0 109.5 33.5t41.5 105.5v473zM306 815l-70 -89h-92l107 144h111l107 -144h-92z" />
    <glyph glyph-name="Udieresis" unicode="&#xdc;" horiz-adv-x="611" 
d="M450 686l98 16v-437q0 -156 -55 -218.5t-186 -62.5q-138 0 -191 64.5t-53 216.5v421l98 16v-489q0 -66 36.5 -102.5t101.5 -36.5q68 0 109.5 33.5t41.5 105.5v473zM399 720l-63 73l63 73l61 -73zM214 720l-62 73l62 73l62 -73z" />
    <glyph glyph-name="Yacute" unicode="&#xdd;" 
d="M423 702l94 -29l-308 -689l-96 21l120 259l-249 410l96 28l199 -334zM192 726l90 144h136l-144 -144h-82z" />
    <glyph glyph-name="Thorn" unicode="&#xde;" 
d="M64 -8v694l98 16v-126h90q106 0 169 -56t63 -146q0 -222 -266 -222h-56v-152zM162 486v-244h79q73 0 109 30.5t36 101.5q0 59 -40.5 85.5t-104.5 26.5h-79z" />
    <glyph glyph-name="germandbls" unicode="&#xdf;" horiz-adv-x="611" 
d="M174 70v-105l-91 -37v419h-81l27 85h54v88q0 79 67 133t154 54q81 0 142 -52.5t61 -142.5q0 -88 -85 -137q63 -23 96.5 -69t33.5 -109q0 -102 -63 -157.5t-153 -55.5q-53 0 -95 23t-65 63h-2zM272 325v85q59 -3 99 21t40 81q0 50 -28.5 77.5t-78.5 27.5q-21 0 -38 -3.5
t-29 -8t-21.5 -15.5t-16 -18.5t-10.5 -24.5t-6 -26.5t-3 -31.5t-1 -31.5v-34.5v-249l36 10q4 -51 37.5 -80.5t83.5 -29.5q56 0 88 32.5t32 90.5q0 22 -3.5 40t-13 30.5t-17 21.5t-25.5 15.5t-26.5 10t-32.5 5.5t-32 3t-34 2z" />
    <glyph glyph-name="agrave" unicode="&#xe0;" 
d="M449 0l-86 -16v70h-2q-36 -70 -150 -70q-84 0 -136 56t-52 141q0 81 60 130t142 49t128 -49v39q0 52 -28 67t-92 15q-90 0 -148 -29l26 99q100 20 138 20q103 0 151.5 -44.5t48.5 -145.5v-332zM236 275q-48 0 -82.5 -24t-34.5 -70q0 -53 29 -80t81 -27q124 0 124 107
q0 45 -34 69.5t-83 24.5zM110 725h134l90 -144h-82z" />
    <glyph glyph-name="aacute" unicode="&#xe1;" 
d="M449 0l-86 -16v70h-2q-36 -70 -150 -70q-84 0 -136 56t-52 141q0 81 60 130t142 49t128 -49v39q0 52 -28 67t-92 15q-90 0 -148 -29l26 99q100 20 138 20q103 0 151.5 -44.5t48.5 -145.5v-332zM236 275q-48 0 -82.5 -24t-34.5 -70q0 -53 29 -80t81 -27q124 0 124 107
q0 45 -34 69.5t-83 24.5zM182 581l90 144h136l-144 -144h-82z" />
    <glyph glyph-name="acircumflex" unicode="&#xe2;" 
d="M449 0l-86 -16v70h-2q-36 -70 -150 -70q-84 0 -136 56t-52 141q0 81 60 130t142 49t128 -49v39q0 52 -28 67t-92 15q-90 0 -148 -29l26 99q100 20 138 20q103 0 151.5 -44.5t48.5 -145.5v-332zM236 275q-48 0 -82.5 -24t-34.5 -70q0 -53 29 -80t81 -27q124 0 124 107
q0 45 -34 69.5t-83 24.5zM259 670l-70 -89h-92l107 144h111l107 -144h-92z" />
    <glyph glyph-name="atilde" unicode="&#xe3;" 
d="M449 0l-86 -16v70h-2q-36 -70 -150 -70q-84 0 -136 56t-52 141q0 81 60 130t142 49t128 -49v39q0 52 -28 67t-92 15q-90 0 -148 -29l26 99q100 20 138 20q103 0 151.5 -44.5t48.5 -145.5v-332zM236 275q-48 0 -82.5 -24t-34.5 -70q0 -53 29 -80t81 -27q124 0 124 107
q0 45 -34 69.5t-83 24.5zM378 711h57q-7 -51 -34.5 -83.5t-76.5 -32.5q-26 0 -73 19q-50 18 -71 18q-18 0 -28 -13t-13 -31h-57q3 43 32.5 80t71.5 37q33 0 79 -19q49 -19 67 -19q35 0 46 44z" />
    <glyph glyph-name="adieresis" unicode="&#xe4;" 
d="M449 0l-86 -16v70h-2q-36 -70 -150 -70q-84 0 -136 56t-52 141q0 81 60 130t142 49t128 -49v39q0 52 -28 67t-92 15q-90 0 -148 -29l26 99q100 20 138 20q103 0 151.5 -44.5t48.5 -145.5v-332zM236 275q-48 0 -82.5 -24t-34.5 -70q0 -53 29 -80t81 -27q124 0 124 107
q0 45 -34 69.5t-83 24.5zM352 575l-63 73l63 73l61 -73zM167 575l-62 73l62 73l62 -73z" />
    <glyph glyph-name="aring" unicode="&#xe5;" 
d="M449 0l-86 -16v70h-2q-36 -70 -150 -70q-84 0 -136 56t-52 141q0 81 60 130t142 49t128 -49v39q0 52 -28 67t-92 15q-90 0 -148 -29l26 99q100 20 138 20q103 0 151.5 -44.5t48.5 -145.5v-332zM236 275q-48 0 -82.5 -24t-34.5 -70q0 -53 29 -80t81 -27q124 0 124 107
q0 45 -34 69.5t-83 24.5zM259 737q-23 0 -38.5 -15.5t-15.5 -38.5q0 -22 15.5 -38t38.5 -16q22 0 38 16.5t16 37.5q0 22 -16 38t-38 16zM259 580q-43 0 -73 30t-30 73t30 73t73 30q42 0 72.5 -30t30.5 -73t-30 -73t-73 -30z" />
    <glyph glyph-name="ae" unicode="&#xe6;" horiz-adv-x="833" 
d="M83 399l25 101q56 22 129 22q122 0 170 -78q86 75 189 78q73 2 134 -36.5t98 -105.5l-370 -219q16 -44 58.5 -65.5t94.5 -21.5q87 0 185 84l21 -104q-101 -70 -206 -70q-144 0 -222 98q-61 -98 -168 -98q-94 0 -147.5 53t-53.5 141q0 80 57.5 128.5t130.5 48.5
q86 0 128 -45v33q0 51 -28 70t-83 19q-71 0 -142 -33zM221 74q50 0 83 26t33 75q0 45 -34 70t-82 25q-42 0 -73.5 -24t-31.5 -68q0 -48 28.5 -76t76.5 -28zM432 244l258 152q-36 36 -94 36q-76 0 -122.5 -55t-41.5 -133z" />
    <glyph glyph-name="ccedilla" unicode="&#xe7;" 
d="M475 451l-58 -66q-35 26 -61.5 36.5t-66.5 10.5q-71 0 -117 -54t-46 -126q0 -69 50 -123.5t115 -54.5q63 0 125 60l62 -63q-76 -79 -169 -86l-33 -43l2 -2q12 4 24 4q36 0 63 -20t27 -56q0 -49 -38 -71.5t-90 -22.5q-44 0 -96 26l19 40q38 -16 64 -16q61 0 61 40
q0 28 -32.5 34t-52.5 -5l-22 19l56 75q-95 10 -163 85t-68 177q0 114 73 193.5t185 79.5q105 0 187 -71z" />
    <glyph glyph-name="egrave" unicode="&#xe8;" horiz-adv-x="556" 
d="M514 383l-356 -227q51 -82 139 -82q76 0 188 88l19 -101q-55 -38 -100.5 -57.5t-100.5 -19.5q-121 0 -195 80t-74 203q0 103 75.5 179t177.5 76q78 0 131 -34t96 -105zM130 239l252 160q-29 33 -88 33q-80 0 -126.5 -56.5t-37.5 -136.5zM138 725h134l90 -144h-82z" />
    <glyph glyph-name="eacute" unicode="&#xe9;" horiz-adv-x="556" 
d="M514 383l-356 -227q51 -82 139 -82q76 0 188 88l19 -101q-55 -38 -100.5 -57.5t-100.5 -19.5q-121 0 -195 80t-74 203q0 103 75.5 179t177.5 76q78 0 131 -34t96 -105zM130 239l252 160q-29 33 -88 33q-80 0 -126.5 -56.5t-37.5 -136.5zM210 581l90 144h136l-144 -144
h-82z" />
    <glyph glyph-name="ecircumflex" unicode="&#xea;" horiz-adv-x="556" 
d="M514 383l-356 -227q51 -82 139 -82q76 0 188 88l19 -101q-55 -38 -100.5 -57.5t-100.5 -19.5q-121 0 -195 80t-74 203q0 103 75.5 179t177.5 76q78 0 131 -34t96 -105zM130 239l252 160q-29 33 -88 33q-80 0 -126.5 -56.5t-37.5 -136.5zM287 670l-70 -89h-92l107 144h111
l107 -144h-92z" />
    <glyph glyph-name="edieresis" unicode="&#xeb;" horiz-adv-x="556" 
d="M514 383l-356 -227q51 -82 139 -82q76 0 188 88l19 -101q-55 -38 -100.5 -57.5t-100.5 -19.5q-121 0 -195 80t-74 203q0 103 75.5 179t177.5 76q78 0 131 -34t96 -105zM130 239l252 160q-29 33 -88 33q-80 0 -126.5 -56.5t-37.5 -136.5zM380 575l-63 73l63 73l61 -73z
M195 575l-62 73l62 73l62 -73z" />
    <glyph glyph-name="igrave" unicode="&#xec;" horiz-adv-x="222" 
d="M159 0l-96 -16v522l96 16v-522zM-38 725h134l90 -144h-82z" />
    <glyph glyph-name="iacute" unicode="&#xed;" horiz-adv-x="222" 
d="M159 0l-96 -16v522l96 16v-522zM34 581l90 144h136l-144 -144h-82z" />
    <glyph glyph-name="icircumflex" unicode="&#xee;" horiz-adv-x="222" 
d="M159 0l-96 -16v522l96 16v-522zM111 670l-70 -89h-92l107 144h111l107 -144h-92z" />
    <glyph glyph-name="idieresis" unicode="&#xef;" horiz-adv-x="222" 
d="M159 0l-96 -16v522l96 16v-522zM204 575l-63 73l63 73l61 -73zM19 575l-62 73l62 73l62 -73z" />
    <glyph glyph-name="eth" unicode="&#xf0;" horiz-adv-x="611" 
d="M485 253q0 74 -52.5 126.5t-127.5 52.5t-127 -52.5t-52 -126.5t52 -126.5t127 -52.5t127.5 52.5t52.5 126.5zM121 690l88 17q11 -8 33.5 -24t32.5 -23l127 37l45 -53l-109 -33q243 -190 243 -358q0 -113 -81 -191t-195 -78q-113 0 -194 78t-81 191t81 191t194 78
q18 0 24 -2h3q-47 44 -75 67l-131 -39l-46 54l116 34q-32 26 -75 54z" />
    <glyph glyph-name="ntilde" unicode="&#xf1;" horiz-adv-x="556" 
d="M150 0l-96 -16v522l96 16v-75h2q21 37 61.5 56t88.5 19q85 0 142 -43.5t57 -132.5v-346l-96 -16v354q0 52 -31.5 75.5t-80.5 23.5q-62 0 -102.5 -39t-40.5 -116v-282zM397 711h57q-7 -51 -34.5 -83.5t-76.5 -32.5q-25 0 -73 19q-50 18 -71 18q-17 0 -27.5 -13t-13.5 -31
h-57q3 43 32.5 80t71.5 37q33 0 79 -19q49 -19 67 -19q35 0 46 44z" />
    <glyph glyph-name="ograve" unicode="&#xf2;" horiz-adv-x="611" 
d="M305 522q114 0 195 -78t81 -191t-81 -191t-195 -78q-113 0 -194 78t-81 191t81 191t194 78zM485 253q0 74 -52.5 126.5t-127.5 52.5t-127 -52.5t-52 -126.5t52 -126.5t127 -52.5t127.5 52.5t52.5 126.5zM157 725h134l90 -144h-82z" />
    <glyph glyph-name="oacute" unicode="&#xf3;" horiz-adv-x="611" 
d="M305 522q114 0 195 -78t81 -191t-81 -191t-195 -78q-113 0 -194 78t-81 191t81 191t194 78zM485 253q0 74 -52.5 126.5t-127.5 52.5t-127 -52.5t-52 -126.5t52 -126.5t127 -52.5t127.5 52.5t52.5 126.5zM229 581l90 144h136l-144 -144h-82z" />
    <glyph glyph-name="ocircumflex" unicode="&#xf4;" horiz-adv-x="611" 
d="M305 522q114 0 195 -78t81 -191t-81 -191t-195 -78q-113 0 -194 78t-81 191t81 191t194 78zM485 253q0 74 -52.5 126.5t-127.5 52.5t-127 -52.5t-52 -126.5t52 -126.5t127 -52.5t127.5 52.5t52.5 126.5zM306 670l-70 -89h-92l107 144h111l107 -144h-92z" />
    <glyph glyph-name="otilde" unicode="&#xf5;" horiz-adv-x="611" 
d="M305 522q114 0 195 -78t81 -191t-81 -191t-195 -78q-113 0 -194 78t-81 191t81 191t194 78zM485 253q0 74 -52.5 126.5t-127.5 52.5t-127 -52.5t-52 -126.5t52 -126.5t127 -52.5t127.5 52.5t52.5 126.5zM425 711h57q-7 -51 -34.5 -83.5t-76.5 -32.5q-25 0 -73 19
q-50 18 -71 18q-18 0 -28.5 -13t-12.5 -31h-57q3 43 32.5 80t71.5 37q33 0 79 -19q49 -19 67 -19q35 0 46 44z" />
    <glyph glyph-name="odieresis" unicode="&#xf6;" horiz-adv-x="611" 
d="M305 522q114 0 195 -78t81 -191t-81 -191t-195 -78q-113 0 -194 78t-81 191t81 191t194 78zM485 253q0 74 -52.5 126.5t-127.5 52.5t-127 -52.5t-52 -126.5t52 -126.5t127 -52.5t127.5 52.5t52.5 126.5zM399 575l-63 73l63 73l61 -73zM214 575l-62 73l62 73l62 -73z" />
    <glyph glyph-name="divide" unicode="&#xf7;" horiz-adv-x="600" 
d="M553 212h-506v82h506v-82zM228 460q0 29 22 50.5t50 21.5t50 -21.5t22 -50.5t-22 -50.5t-50 -21.5t-50 21.5t-22 50.5zM228 46q0 29 22 50.5t50 21.5t50 -21.5t22 -50.5t-22 -50.5t-50 -21.5t-50 21.5t-22 50.5z" />
    <glyph glyph-name="oslash" unicode="&#xf8;" horiz-adv-x="611" 
d="M426 385l-200 -292q38 -19 79 -19q75 0 127.5 52.5t52.5 126.5q0 79 -59 132zM178 127l199 290q-33 15 -72 15q-75 0 -127 -52.5t-52 -126.5q0 -72 52 -126zM108 -78l-53 26l71 103q-96 76 -96 202q0 113 81 191t194 78q70 0 125 -29l65 95l53 -26l-69 -100
q102 -81 102 -209q0 -113 -81 -191t-195 -78q-71 0 -131 34z" />
    <glyph glyph-name="ugrave" unicode="&#xf9;" horiz-adv-x="556" 
d="M405 506l96 16v-522l-94 -16v75h-2q-45 -75 -152 -75q-85 0 -142 42.5t-57 127.5v352l96 16v-354q0 -52 31.5 -75.5t80.5 -23.5q62 0 102.5 39t40.5 116v282zM129 725h134l90 -144h-82z" />
    <glyph glyph-name="uacute" unicode="&#xfa;" horiz-adv-x="556" 
d="M405 506l96 16v-522l-94 -16v75h-2q-45 -75 -152 -75q-85 0 -142 42.5t-57 127.5v352l96 16v-354q0 -52 31.5 -75.5t80.5 -23.5q62 0 102.5 39t40.5 116v282zM201 581l90 144h136l-144 -144h-82z" />
    <glyph glyph-name="ucircumflex" unicode="&#xfb;" horiz-adv-x="556" 
d="M405 506l96 16v-522l-94 -16v75h-2q-45 -75 -152 -75q-85 0 -142 42.5t-57 127.5v352l96 16v-354q0 -52 31.5 -75.5t80.5 -23.5q62 0 102.5 39t40.5 116v282zM278 670l-70 -89h-92l107 144h111l107 -144h-92z" />
    <glyph glyph-name="udieresis" unicode="&#xfc;" horiz-adv-x="556" 
d="M405 506l96 16v-522l-94 -16v75h-2q-45 -75 -152 -75q-85 0 -142 42.5t-57 127.5v352l96 16v-354q0 -52 31.5 -75.5t80.5 -23.5q62 0 102.5 39t40.5 116v282zM371 575l-63 73l63 73l61 -73zM186 575l-62 73l62 73l62 -73z" />
    <glyph glyph-name="yacute" unicode="&#xfd;" horiz-adv-x="444" 
d="M181 113l-197 393l84 16l159 -311l148 311l84 -16l-321 -670l-86 24zM145 581l90 144h136l-144 -144h-82z" />
    <glyph glyph-name="thorn" unicode="&#xfe;" horiz-adv-x="611" 
d="M144 707v-270h2q62 85 176 85q108 0 183.5 -81t75.5 -189q0 -115 -75 -191.5t-184 -76.5q-98 0 -178 73v-229l-96 -12v875zM485 252q0 80 -53 130t-133 50q-71 0 -119 -53.5t-48 -126.5q0 -70 51 -124t120 -54q79 0 130.5 49t51.5 129z" />
    <glyph glyph-name="ydieresis" unicode="&#xff;" horiz-adv-x="444" 
d="M181 113l-197 393l84 16l159 -311l148 311l84 -16l-321 -670l-86 24zM315 575l-63 73l63 73l61 -73zM130 575l-62 73l62 73l62 -73z" />
    <glyph glyph-name="dotlessi" unicode="&#x131;" horiz-adv-x="222" 
d="M159 0l-96 -16v522l96 16v-522z" />
    <glyph glyph-name="Lslash" unicode="&#x141;" horiz-adv-x="444" 
d="M278 446v-90l-113 -36v-230h291l-40 -90h-349v289l-67 -21v88l67 22v308l98 16v-293z" />
    <glyph glyph-name="lslash" unicode="&#x142;" horiz-adv-x="222" 
d="M63 691l96 16v-260l45 25v-81l-45 -25v-366l-96 -12v324l-45 -26v81l45 26v298z" />
    <glyph glyph-name="OE" unicode="&#x152;" horiz-adv-x="1000" 
d="M597 578v108h345l21 -90h-268v-194h216v-90h-216v-222h296l-26 -90h-365v95q-96 -111 -249 -111q-156 0 -249 97.5t-93 245.5q0 95 41 180t119.5 140t176.5 55q73 0 140 -33t109 -91h2zM351 74q97 0 171 78t74 175q0 116 -68.5 200.5t-181.5 84.5q-107 0 -173 -87
t-66 -198q0 -97 74 -175t170 -78z" />
    <glyph glyph-name="oe" unicode="&#x153;" horiz-adv-x="1000" 
d="M971 381l-369 -221q10 -37 53.5 -61.5t84.5 -24.5q56 0 108.5 23t90.5 65l24 -108q-93 -70 -226 -70q-66 0 -122 29t-92 83q-86 -112 -230 -112q-119 0 -192 77.5t-73 192.5q0 114 82 191t190 77q139 0 224 -113q85 113 209 113q151 0 238 -141zM124 254
q0 -77 50.5 -128.5t119.5 -51.5q76 0 128.5 52t52.5 128q0 73 -50 125.5t-123 52.5q-80 0 -129 -51.5t-49 -126.5zM571 236l263 157q-28 39 -95 39q-75 0 -125 -59.5t-43 -136.5z" />
    <glyph glyph-name="Scaron" unicode="&#x160;" 
d="M35 95l72 60q22 -35 57 -58t74 -23q57 0 91 29.5t34 90.5q0 43 -32.5 69.5t-78.5 41t-92 33t-78.5 60.5t-32.5 109q0 90 58.5 142.5t152.5 52.5q56 0 107.5 -27t85.5 -73l-66 -66q-23 24 -38.5 38t-41 26t-52.5 12q-48 0 -78 -28.5t-30 -76.5q0 -33 23.5 -56t58 -35.5
t75.5 -30t75.5 -37t58 -59.5t23.5 -96q0 -91 -61.5 -150t-151.5 -59q-65 0 -112.5 27.5t-100.5 83.5zM432 870l-107 -144h-111l-107 144h92l70 -90l71 90h92z" />
    <glyph glyph-name="scaron" unicode="&#x161;" horiz-adv-x="389" 
d="M16 69l66 56q48 -56 106 -56q33 0 59 16.5t26 47.5q0 30 -18.5 49t-46 26.5t-60 17.5t-60 21.5t-46 41t-18.5 73.5q0 70 47 115t117 45q52 0 88.5 -16t75.5 -55l-57 -63q-25 26 -45.5 37.5t-51.5 11.5q-78 0 -78 -62q0 -31 25.5 -47.5t62 -25.5t73.5 -21.5t62.5 -46
t25.5 -89.5q0 -71 -51.5 -116t-123.5 -45q-113 0 -178 85zM358 725l-107 -144h-111l-107 144h92l70 -90l71 90h92z" />
    <glyph glyph-name="Ydieresis" unicode="&#x178;" 
d="M423 702l94 -29l-308 -689l-96 21l120 259l-249 410l96 28l199 -334zM362 720l-63 73l63 73l61 -73zM177 720l-62 73l62 73l62 -73z" />
    <glyph glyph-name="Zcaron" unicode="&#x17d;" horiz-adv-x="556" 
d="M543 90l-24 -90h-505l364 596h-349l20 90h476l-360 -596h378zM460 870l-107 -144h-111l-107 144h92l70 -90l71 90h92z" />
    <glyph glyph-name="zcaron" unicode="&#x17e;" 
d="M471 85l-22 -85h-439l301 421h-267l19 85h410l-306 -421h304zM413 725l-107 -144h-111l-107 144h92l70 -90l71 90h92z" />
    <glyph glyph-name="florin" unicode="&#x192;" horiz-adv-x="556" 
d="M3 -166l12 79q42 -17 65 -17q28 0 48 13.5t30.5 37t16.5 46.5t11 50q1 9 2 13q10 53 27 152t25 142h-120v85h138q7 42 13.5 72.5t21.5 70t34 64.5t51 42.5t72 17.5q42 0 86 -14l-12 -81q-36 15 -59 15q-30 0 -51 -17.5t-32.5 -50.5t-16.5 -57.5t-10 -61.5h131v-85h-147
q-2 -14 -17 -107.5t-27.5 -155.5t-27.5 -112q-26 -86 -63 -122.5t-118 -36.5q-36 0 -83 18z" />
    <glyph glyph-name="circumflex" unicode="&#x2c6;" horiz-adv-x="222" 
d="M111 670l-70 -89h-92l107 144h111l107 -144h-92z" />
    <glyph glyph-name="caron" unicode="&#x2c7;" horiz-adv-x="222" 
d="M274 725l-107 -144h-111l-107 144h92l70 -90l71 90h92z" />
    <glyph glyph-name="uni02C9" unicode="&#x2c9;" horiz-adv-x="222" 
d="M274 615h-325v64h325v-64z" />
    <glyph glyph-name="breve" unicode="&#x2d8;" horiz-adv-x="222" 
d="M-49 723h56q16 -74 100 -74q46 0 72 16.5t37 57.5h56q-4 -65 -48 -103.5t-110 -38.5q-152 0 -163 142z" />
    <glyph glyph-name="dotaccent" unicode="&#x2d9;" horiz-adv-x="222" 
d="M111 575l-62 73l62 73l62 -73z" />
    <glyph glyph-name="ring" unicode="&#x2da;" horiz-adv-x="222" 
d="M111 737q-23 0 -38.5 -15.5t-15.5 -38.5q0 -22 15.5 -38t38.5 -16q22 0 38 16.5t16 37.5q0 22 -16 38t-38 16zM111 580q-43 0 -73 30t-30 73t30 73t73 30q42 0 72.5 -30t30.5 -73t-30 -73t-73 -30z" />
    <glyph glyph-name="ogonek" unicode="&#x2db;" horiz-adv-x="222" 
d="M255 19v-10q-142 -49 -142 -122q0 -49 52 -49q34 0 98 41l16 -34q-81 -57 -147 -57q-44 0 -71.5 21.5t-27.5 64.5q0 24 10 44.5t31 35t40 25t50 19t47 12.5t44 9z" />
    <glyph glyph-name="tilde" unicode="&#x2dc;" horiz-adv-x="222" 
d="M230 711h57q-7 -51 -34.5 -83.5t-76.5 -32.5q-26 0 -73 19q-50 18 -71 18q-18 0 -28 -13t-13 -31h-57q3 43 32.5 80t71.5 37q33 0 79 -19q49 -19 67 -19q35 0 46 44z" />
    <glyph glyph-name="hungarumlaut" unicode="&#x2dd;" horiz-adv-x="222" 
d="M49 581l63 155h95l-91 -155h-67zM186 581l91 155h104l-128 -155h-67z" />
    <glyph glyph-name="uni03A9" unicode="&#x3a9;" horiz-adv-x="716" 
d="M191 74v3q-57 50 -94.5 127t-37.5 171q0 142 85.5 235t215.5 93q132 0 213.5 -96.5t81.5 -226.5q0 -97 -38.5 -176.5t-94.5 -126.5v-3h146v-74h-247v54q61 39 101.5 118t40.5 190q0 67 -22 126t-69.5 99t-111.5 40q-94 0 -151.5 -76.5t-57.5 -191.5q0 -104 41.5 -186.5
t100.5 -118.5v-54h-247v74h145z" />
    <glyph glyph-name="uni03BC" unicode="&#x3bc;" horiz-adv-x="556" 
d="M405 506l96 16v-522l-94 -16v75h-2q-49 -75 -165 -75q-53 0 -90 17v-173l-96 -12v690l96 16v-354q0 -52 31.5 -75.5t80.5 -23.5q62 0 102.5 39t40.5 116v282z" />
    <glyph glyph-name="pi" unicode="&#x3c0;" horiz-adv-x="579" 
d="M553 439h-78v-292q0 -91 14 -147h-87q-17 31 -17 140v299h-168q-5 -104 -25 -238t-45 -201h-89q27 79 47 210t22 229q-74 0 -107 -11l-12 59q43 29 149 29h404z" />
    <glyph glyph-name="uni2010" unicode="&#x2010;" horiz-adv-x="333" 
d="M285 209h-238v88h238v-88z" />
    <glyph glyph-name="endash" unicode="&#x2013;" 
d="M500 216h-500v74h500v-74z" />
    <glyph glyph-name="emdash" unicode="&#x2014;" horiz-adv-x="1000" 
d="M1000 216h-1000v74h1000v-74z" />
    <glyph glyph-name="quoteleft" unicode="&#x2018;" horiz-adv-x="222" 
d="M132 702l52 -38q-2 -3 -14.5 -21t-20 -30.5t-15 -28.5t-7.5 -25q0 -12 3 -20t13 -15.5t13.5 -9.5t19.5 -10l-60 -75q-39 28 -59 52t-20 61q0 8 3.5 19.5t11 25t14.5 25t18.5 27t17.5 24t17 23t13 16.5z" />
    <glyph glyph-name="quoteright" unicode="&#x2019;" horiz-adv-x="222" 
d="M90 429l-52 38q2 3 14.5 21t20 30.5t15 28.5t7.5 25q0 12 -3 20t-13 15.5t-13.5 9.5t-19.5 10l60 75q39 -28 59 -52t20 -61q0 -8 -3.5 -19.5t-11 -25t-14.5 -25t-18.5 -27t-17.5 -24t-17 -23t-13 -16.5z" />
    <glyph glyph-name="quotesinglbase" unicode="&#x201a;" horiz-adv-x="222" 
d="M105 -146l-56 40q2 2 8.5 12.5t9.5 15t8.5 14.5t8 16t4.5 14t2 15q0 29 -46 51l61 78q35 -26 54 -51t19 -60q0 -14 -4.5 -29.5t-14 -32.5t-16.5 -28t-20.5 -30t-17.5 -25z" />
    <glyph glyph-name="quotedblleft" unicode="&#x201c;" horiz-adv-x="389" 
d="M278 702l56 -40q-2 -2 -8.5 -12.5t-9.5 -15t-8.5 -14.5t-8 -16t-4.5 -14t-2 -15q0 -29 46 -51l-61 -78q-35 26 -54 51t-19 60q0 14 4.5 29.5t14 32.5t16.5 28t20.5 30t17.5 25zM124 702l56 -40q-2 -2 -8.5 -12.5t-9.5 -15t-8.5 -14.5t-8 -16t-4.5 -14t-2 -15
q0 -29 46 -51l-61 -78q-35 26 -54 51t-19 60q0 14 4.5 29.5t14 32.5t16.5 28t20.5 30t17.5 25z" />
    <glyph glyph-name="quotedblright" unicode="&#x201d;" horiz-adv-x="389" 
d="M111 446l-56 40q2 2 8.5 12.5t9.5 15t8.5 14.5t8 16t4.5 14t2 15q0 29 -46 51l61 78q35 -26 54 -51t19 -60q0 -14 -4.5 -29.5t-14 -32.5t-16.5 -28t-20.5 -30t-17.5 -25zM265 446l-56 40q2 2 8.5 12.5t9.5 15t8.5 14.5t8 16t4.5 14t2 15q0 29 -46 51l61 78q35 -26 54 -51
t19 -60q0 -14 -4.5 -29.5t-14 -32.5t-16.5 -28t-20.5 -30t-17.5 -25z" />
    <glyph glyph-name="quotedblbase" unicode="&#x201e;" horiz-adv-x="389" 
d="M111 -146l-56 40q2 2 8.5 12.5t9.5 15t8.5 14.5t8 16t4.5 14t2 15q0 29 -46 51l61 78q35 -26 54 -51t19 -60q0 -14 -4.5 -29.5t-14 -32.5t-16.5 -28t-20.5 -30t-17.5 -25zM265 -146l-56 40q2 2 8.5 12.5t9.5 15t8.5 14.5t8 16t4.5 14t2 15q0 29 -46 51l61 78
q35 -26 54 -51t19 -60q0 -14 -4.5 -29.5t-14 -32.5t-16.5 -28t-20.5 -30t-17.5 -25z" />
    <glyph glyph-name="dagger" unicode="&#x2020;" 
d="M195 686h110l-39 -225l184 41v-109l-184 41q10 -92 42 -183q-30 -153 -38 -428h-40q-8 275 -38 428q32 91 42 183l-184 -41v109l184 -41z" />
    <glyph glyph-name="daggerdbl" unicode="&#x2021;" 
d="M240 40l-190 -46v108l190 -36l-45 189v2l45 184l-190 -41v111l190 -43l-44 218h113l-43 -218l184 40v-103l-184 36l43 -184v-2l-43 -189l184 44v-112l-184 42l44 -217h-115z" />
    <glyph glyph-name="bullet" unicode="&#x2022;" 
d="M421 343q0 -71 -50 -121.5t-121 -50.5q-72 0 -122 50t-50 122q-1 71 49.5 121t122.5 50q71 0 121 -50t50 -121z" />
    <glyph glyph-name="ellipsis" unicode="&#x2026;" horiz-adv-x="1000" 
d="M167 -9l-65 86l65 86l65 -86zM500 -9l-65 86l65 86l65 -86zM833 -9l-65 86l65 86l65 -86z" />
    <glyph glyph-name="perthousand" unicode="&#x2030;" horiz-adv-x="1000" 
d="M486 702h59l-390 -718h-57l321 575l-2 2q-21 -21 -50 -21q-32 0 -47 20l-2 -2q0 -4 2 -18.5t2 -22.5q0 -59 -48.5 -103.5t-109.5 -44.5q-65 0 -111.5 45.5t-46.5 110.5q0 66 45.5 113.5t112.5 47.5q50 0 111 -41q5 -4 17.5 -12.5t18.5 -12.5t15.5 -9.5t18 -7.5t16.5 -2
q72 0 125 101zM72 529q0 -39 26.5 -66.5t65.5 -27.5q37 0 64.5 28t27.5 66q0 37 -27.5 64t-64.5 27q-38 0 -65 -26.5t-27 -64.5zM319 158q0 66 46.5 112t111.5 46t111 -46t46 -112t-46 -112t-111 -46q-66 0 -112 45.5t-46 112.5zM385 158q0 -39 27 -65.5t65 -26.5t64.5 27
t26.5 65q0 37 -27 64.5t-64 27.5t-64.5 -27.5t-27.5 -64.5zM685 158q0 66 46.5 112t111.5 46t111 -46t46 -112t-46 -112t-111 -46q-66 0 -112 45.5t-46 112.5zM751 158q0 -39 27 -65.5t65 -26.5t64.5 27t26.5 65q0 37 -27 64.5t-64 27.5t-64.5 -27.5t-27.5 -64.5z" />
    <glyph glyph-name="guilsinglleft" unicode="&#x2039;" horiz-adv-x="278" 
d="M239 398l-100 -145l100 -145h-100l-100 145l100 145h100z" />
    <glyph glyph-name="guilsinglright" unicode="&#x203a;" horiz-adv-x="278" 
d="M39 108l100 145l-100 145h100l100 -145l-100 -145h-100z" />
    <glyph glyph-name="fraction" unicode="&#x2044;" horiz-adv-x="167" 
d="M-111 -16h-56l443 718h58z" />
    <glyph glyph-name="Euro" unicode="&#x20ac;" horiz-adv-x="556" 
d="M543 116l-16 -107q-50 -25 -111 -25q-116 0 -197.5 72t-108.5 186h-98l15 77h72v24q0 23 1 35h-88l15 77h87q29 107 105 177t183 70q54 0 107 -17l20 -106q-45 33 -107 33q-80 0 -133.5 -43t-76.5 -114h222l-15 -77h-222q-2 -20 -2 -31q0 -19 1 -28h210l-15 -77h-182
q21 -77 74.5 -122.5t134.5 -45.5q75 0 125 42z" />
    <glyph glyph-name="afii61289" unicode="&#x2113;" horiz-adv-x="493" 
d="M430 155l41 -38q-68 -129 -193 -129q-81 0 -122.5 50t-46.5 127q-1 4 -1 12q-7 -5 -26 -20.5t-29 -23.5l-26 50q66 55 80 68v265q0 125 46.5 183.5t114.5 58.5q63 0 96 -46.5t33 -118.5q0 -162 -203 -358v-35q1 -69 30 -104.5t73 -35.5q41 0 75.5 28t57.5 67zM194 521
v-200q143 157 143 272q0 99 -67 99q-31 0 -53.5 -41t-22.5 -130z" />
    <glyph glyph-name="trademark" unicode="&#x2122;" horiz-adv-x="990" 
d="M390 686v-62h-128v-334h-76v334h-128v62h332zM591 686l113 -279l112 279h116v-396h-76v310h-2l-123 -310h-56l-123 310h-2v-310h-76v396h117z" />
    <glyph glyph-name="Omega" unicode="&#x2126;" horiz-adv-x="716" 
d="M191 74v3q-57 50 -94.5 127t-37.5 171q0 142 85.5 235t215.5 93q132 0 213.5 -96.5t81.5 -226.5q0 -97 -38.5 -176.5t-94.5 -126.5v-3h146v-74h-247v54q61 39 101.5 118t40.5 190q0 67 -22 126t-69.5 99t-111.5 40q-94 0 -151.5 -76.5t-57.5 -191.5q0 -104 41.5 -186.5
t100.5 -118.5v-54h-247v74h145z" />
    <glyph glyph-name="estimated" unicode="&#x212e;" horiz-adv-x="866" 
d="M831 333h-646q-5 0 -5 -4v-196q0 -13 9 -22q101 -106 244 -106q154 0 257 119h57q-54 -64 -137.5 -101.5t-177.5 -37.5q-165 0 -282 105t-117 253t117 253.5t282 105.5q166 0 282.5 -105t116.5 -254v-10zM685 358v197q0 13 -10 23q-104 102 -242 102q-141 0 -243 -105
q-10 -9 -10 -24v-193q0 -6 5 -6h495q5 0 5 6z" />
    <glyph glyph-name="partialdiff" unicode="&#x2202;" horiz-adv-x="553" 
d="M102 652l-29 66q72 56 171 56q109 0 184 -98t75 -278q0 -182 -70 -296t-196 -114q-93 0 -144.5 70t-51.5 161q0 114 62.5 184.5t150.5 70.5q59 0 101 -30t58 -61h1q1 10 1 40q0 119 -52 197.5t-129 78.5q-72 0 -132 -47zM245 63h1q63 0 105.5 70t53.5 167
q-13 36 -49.5 68.5t-85.5 32.5q-58 0 -99 -54t-41 -129q0 -67 31.5 -111t83.5 -44z" />
    <glyph glyph-name="uni2206" unicode="&#x2206;" horiz-adv-x="649" 
d="M29 0v58l245 651h105l240 -650v-59h-590zM122 73h400l-134 353q-8 25 -32.5 92t-31.5 90h-3q-5 -19 -27 -80t-30 -86z" />
    <glyph glyph-name="product" unicode="&#x220f;" horiz-adv-x="704" 
d="M678 610h-107v-705h-89v705h-261v-705h-89v705h-107v82h653v-82z" />
    <glyph glyph-name="summation" unicode="&#x2211;" horiz-adv-x="553" 
d="M532 -96h-509v59l260 334l-249 332v63h482v-78h-359v-3l228 -300l-248 -319v-3h395v-85z" />
    <glyph glyph-name="minus" unicode="&#x2212;" horiz-adv-x="600" 
d="M553 212h-506v82h506v-82z" />
    <glyph glyph-name="uni2215" unicode="&#x2215;" horiz-adv-x="167" 
d="M-111 -16h-56l443 718h58z" />
    <glyph glyph-name="uni2219" unicode="&#x2219;" horiz-adv-x="278" 
d="M79 253q0 24 17.5 42t42.5 18q24 0 42 -17.5t18 -42.5t-17.5 -42.5t-42.5 -17.5t-42.5 17.5t-17.5 42.5z" />
    <glyph glyph-name="radical" unicode="&#x221a;" horiz-adv-x="576" 
d="M579 824l-223 -969h-76l-156 451l-74 -28l-17 53l146 57l120 -353q13 -51 18 -75l2 -1q6 38 14 78l181 787h65z" />
    <glyph glyph-name="infinity" unicode="&#x221e;" horiz-adv-x="773" 
d="M723 287v-1q0 -72 -46 -117t-108 -45q-45 0 -87.5 27.5t-93.5 89.5q-50 -58 -91 -87.5t-96 -29.5q-62 0 -107 45.5t-45 112.5q0 70 45.5 116t113.5 46q52 0 95 -30.5t88 -86.5q3 3 8 9q23 26 37 40t37.5 32.5t48.5 27t54 8.5q65 -1 106 -44.5t41 -112.5zM208 177h1
q13 0 25 3t25 10.5t21 12.5t22 18.5t18.5 18t20 21.5t17.5 19q-25 32 -34.5 42.5t-32 32t-43 29.5t-45.5 8q-45 0 -71 -32t-26 -79q0 -44 28.5 -74t73.5 -30zM570 392h-1q-18 0 -36.5 -7t-35.5 -21t-28.5 -25t-28 -29.5t-21.5 -23.5q53 -61 84.5 -85t68.5 -24q43 0 69 32.5
t26 72.5q0 50 -27 80t-70 30z" />
    <glyph glyph-name="integral" unicode="&#x222b;" horiz-adv-x="366" 
d="M349 835l-13 -62q-16 10 -36 10q-32 0 -50 -24q-32 -39 -32 -174q0 -77 7 -242t7 -249q0 -133 -41 -200q-34 -57 -107 -57q-41 0 -69 17l14 64q25 -11 45 -11q28 0 45 21q32 42 32 166q0 85 -7 252.5t-7 247.5q0 83 12.5 133t42.5 81q37 40 100 40q33 0 57 -13z" />
    <glyph glyph-name="approxequal" unicode="&#x2248;" horiz-adv-x="558" 
d="M478 433l35 -31q-52 -96 -130 -96q-45 0 -116 41q-55 33 -91 33q-31 0 -52.5 -18.5t-44.5 -54.5l-36 31q23 45 60 71t80 26q14 0 26.5 -2.5t25.5 -8t20 -8.5t20.5 -11t16.5 -10q4 -2 14.5 -8l14 -8t12 -6t13 -5.5t11.5 -4t13.5 -3t13.5 -0.5q50 0 94 73zM478 259l35 -31
q-52 -96 -131 -96q-27 0 -50.5 9t-64.5 32q-59 34 -91 34q-31 0 -52 -19t-45 -55l-36 31q23 44 59.5 70.5t79.5 26.5q17 0 35 -5t27 -8.5t27.5 -14t20.5 -11.5q5 -3 18 -10.5t19 -10.5t16.5 -7.5t20 -6t19.5 -1.5q29 0 50 17.5t43 55.5z" />
    <glyph glyph-name="notequal" unicode="&#x2260;" horiz-adv-x="558" 
d="M400 503l-43 -95h150v-56h-172l-65 -142h237v-56h-259l-53 -116l-44 19l44 97h-145v56h168l64 142h-232v56h254l52 114z" />
    <glyph glyph-name="lessequal" unicode="&#x2264;" horiz-adv-x="558" 
d="M504 96l-449 223v59l449 223v-65l-390 -186v-2l390 -186v-66zM507 0h-457v56h457v-56z" />
    <glyph glyph-name="greaterequal" unicode="&#x2265;" horiz-adv-x="558" 
d="M57 601l448 -223v-59l-448 -223v66l390 186v2l-390 186v65zM506 0h-455v56h455v-56z" />
    <glyph glyph-name="lozenge" unicode="&#x25ca;" horiz-adv-x="577" 
d="M523 345l-201 -391h-72l-197 391l200 393h73zM442 343l-134 266q-13 32 -19 54h-3q-5 -22 -19 -54l-133 -262l135 -268q11 -27 17 -52h4q7 32 17 51z" />
    <glyph glyph-name="fi" unicode="&#xfb01;" 
d="M75 -16v437h-66l28 85h38q-3 201 197 201l32 -87q-14 2 -36 2q-54 0 -75.5 -21.5t-21.5 -94.5h128v-85h-128v-421zM357 506l96 16v-522l-96 -16v522zM472 642l-63 -73l-67 73l67 73z" />
    <glyph glyph-name="fl" unicode="&#xfb02;" 
d="M75 -16v437h-66l28 85h38q-3 201 195 201l30 -85h-38q-49 0 -70 -22t-21 -94h128v-85h-128v-421zM357 691l96 16v-707l-96 -16v707z" />
    <glyph glyph-name="a.superior" horiz-adv-x="300" 
d="M293 389l-56 -10v42h-2q-25 -42 -99 -42q-55 0 -89.5 33.5t-34.5 85.5q0 48 39.5 76t93.5 28q57 0 81 -26v23q0 31 -17.5 41t-50.5 10q-61 0 -102 -19l15 59q69 12 90 12q67 0 99.5 -27t32.5 -87v-199zM152 550q-28 0 -50.5 -14t-22.5 -38q0 -32 19 -49.5t50 -17.5
q78 0 78 67q0 24 -21.5 38t-52.5 14z" />
    <glyph glyph-name="o.superior" horiz-adv-x="367" 
d="M7 541q0 67 53 114t124 47t124 -47t53 -114t-53 -114.5t-124 -47.5t-124 47.5t-53 114.5zM74 541q0 -40 33 -70t77 -30q43 0 76.5 30.5t33.5 69.5t-32.5 69t-77.5 30t-77.5 -30t-32.5 -69z" />
    <glyph glyph-name="one.superior" horiz-adv-x="333" 
d="M69 547l-23 38l177 117v-421l-67 -5v324z" />
    <glyph glyph-name="two.superior" horiz-adv-x="333" 
d="M317 342l-11 -61h-290l155 165q74 79 74 128q0 32 -23.5 49.5t-61.5 17.5q-39 0 -60 -24t-21 -58q0 -31 22.5 -55t46.5 -27l-37 -40q-41 12 -70 47t-29 90q0 56 45 92t107 36q63 0 105.5 -35.5t42.5 -92.5q0 -31 -14.5 -63t-45.5 -66.5t-50 -52.5t-56 -50h171z" />
    <glyph glyph-name="three.superior" horiz-adv-x="333" 
d="M15 345l48 41q39 -54 99 -54q39 0 65 18.5t26 49.5q0 29 -25 50t-71 21h-44v56h26q55 0 77.5 14t22.5 44q0 26 -23 41t-56 15q-57 0 -86 -44l-49 43q53 62 135 62q56 0 101 -31t45 -81q0 -59 -64 -88q35 -14 56.5 -42t21.5 -63q0 -57 -44.5 -91.5t-106.5 -34.5
q-100 0 -154 74z" />
    </font>
</defs>
</svg>
